<?xml version="1.0" encoding="utf-8"?>
<!-- Generator: Adobe Illustrator 19.2.1, SVG Export Plug-In . SVG Version: 6.00 Build 0)  -->
<svg version="1.1" id="Layer_1" xmlns="http://www.w3.org/2000/svg" xmlns:xlink="http://www.w3.org/1999/xlink" x="0px" y="0px"
	 viewBox="0 0 32 32" style="enable-background:new 0 0 32 32;" xml:space="preserve">
<style type="text/css">
	.st0{fill:#0071CE;}
	.st1{fill:#003A5D;}
	.st2{fill:#CE8129;}
	.st3{fill:#346094;}
	.st4{fill:#BAC4D8;}
	.st5{fill:#FFFFFF;}
</style>
<path class="st0" d="M12.6,17.7V7.6c0-0.2-0.2-0.4-0.4-0.4H3.9c-0.2,0-0.4,0.2-0.4,0.4v10.1H12.6z"/>
<path class="st0" d="M3.5,21.7v2.7c0,0.2,0.2,0.4,0.4,0.4h8.2c0.2,0,0.4-0.2,0.4-0.4v-2.7H3.5z"/>
<rect x="3.5" y="17.7" class="st1" width="9.1" height="4.1"/>
<g>
	<path class="st2" d="M23.7,14.7c0,0-0.1,0-0.1,0h-7.3l1.9,0L23.7,14.7z"/>
	<path class="st2" d="M24,14.4C24,14.4,24,14.4,24,14.4C24,14.4,24,14.4,24,14.4c0,0.1-0.1,0.3-0.3,0.3C23.9,14.6,24,14.5,24,14.4"
		/>
	<polyline class="st2" points="23.7,14.7 23.7,14.7 23.7,14.7 23.7,14.7 23.7,14.7 23.7,14.7 	"/>
	<path class="st3" d="M13.8,9c-0.1-0.2,0.1-0.3,0.3-0.3l1,0l3.2,0l3.2,0c0.2,0,0.5,0.2,0.5,0.3l2,5.4c0,0,0,0,0,0.1
		c0,0.1-0.1,0.2-0.3,0.3c0,0,0,0,0,0l-7.4,0c-0.2,0-0.5,0-0.6-0.2"/>
	<polyline class="st2" points="23.7,14.7 23.7,14.7 18.2,14.7 16.3,14.7 23.7,14.7 23.7,14.7 	"/>
	<path class="st2" d="M24,14.4C24,14.4,24,14.4,24,14.4c0,0.1-0.1,0.2-0.3,0.3c0,0,0,0,0,0C23.8,14.6,24,14.5,24,14.4"/>
	<path class="st4" d="M24.5,14.4c0,0.2-0.2,0.4-0.4,0.4h-7.9c-0.2,0-0.4-0.2-0.4-0.4V7.6c0-0.2,0.2-0.4,0.4-0.4H24
		c0.2,0,0.4,0.2,0.4,0.4V14.4z"/>
	<rect x="16.6" y="9.9" class="st5" width="2.5" height="2.4"/>
	<rect x="20" y="9.9" class="st0" width="3.6" height="0.8"/>
	<rect x="16.6" y="8.3" class="st1" width="6.9" height="0.8"/>
	<rect x="20" y="11.4" class="st0" width="3.6" height="0.8"/>
	<rect x="20" y="13" class="st0" width="3.6" height="0.8"/>
</g>
<rect x="4.9" y="14.1" class="st4" width="6.6" height="0.5"/>
<rect x="4.9" y="12.7" class="st4" width="6.6" height="0.5"/>
<rect x="4.9" y="15.6" class="st4" width="6.6" height="0.5"/>
<g id="XMLID_910_">
	<path id="XMLID_911_" class="st0" d="M28.5,24.3v0.3c0,0.2-0.5,0.3-0.6,0.3H14.4c-0.2,0-0.6-0.1-0.6-0.3v-0.3H28.5z"/>
</g>
<polygon id="XMLID_909_" class="st4" points="15.7,23.4 13.8,24.3 28.5,24.3 26.4,23.4 "/>
<polygon id="XMLID_908_" class="st3" points="18.9,24 19.5,23.7 22.9,23.7 23.5,24 "/>
<g id="XMLID_905_">
	<path id="XMLID_907_" class="st1" d="M22.1,24.4c0,0.1-0.1,0.1-0.1,0.1h-1.6c-0.1,0-0.1-0.1-0.1-0.1c0-0.1,0.1-0.1,0.1-0.1H22
		C22.1,24.3,22.1,24.3,22.1,24.4"/>
	<path id="XMLID_906_" class="st0" d="M26.4,23.4v-6.9c0-0.2-0.2-0.4-0.4-0.4h-9.8c-0.2,0-0.4,0.2-0.4,0.4v6.9H26.4z"/>
</g>
<rect id="XMLID_904_" x="16.5" y="16.8" class="st5" width="9" height="6"/>
<polygon id="XMLID_903_" class="st5" points="25.5,21.3 16.5,19.3 16.5,16.8 25.5,16.8 "/>
<g id="XMLID_901_">
	<path id="XMLID_902_" class="st0" d="M21.2,16.4c0,0.1-0.1,0.2-0.2,0.2c-0.1,0-0.2-0.1-0.2-0.2c0-0.1,0.1-0.2,0.2-0.2
		C21.1,16.2,21.2,16.3,21.2,16.4"/>
</g>
</svg>
