<?xml version="1.0" encoding="utf-8"?>
<!-- Generator: Adobe Illustrator 19.2.1, SVG Export Plug-In . SVG Version: 6.00 Build 0)  -->
<svg version="1.1" id="Layer_1" xmlns="http://www.w3.org/2000/svg" xmlns:xlink="http://www.w3.org/1999/xlink" x="0px" y="0px"
	 viewBox="0 0 32 32" style="enable-background:new 0 0 32 32;" xml:space="preserve">
<style type="text/css">
	.st0{fill:#BAC4D8;}
	.st1{fill:#346094;}
	.st2{fill:#003A5D;}
	.st3{fill:#FFFFFF;}
	.st4{fill:#0071CE;}
</style>
<g>
	<rect id="XMLID_10359_" x="17.7" y="17.7" class="st0" width="7.7" height="9.6"/>
	<rect id="XMLID_10358_" x="17.7" y="17.3" class="st1" width="7.7" height="0.7"/>
	<polygon id="XMLID_10357_" class="st2" points="25.4,17.3 17.7,17.3 17.6,15.7 25.2,15.7 	"/>
	<rect id="XMLID_10356_" x="19.6" y="20.3" class="st3" width="1.6" height="1.9"/>
	<rect id="XMLID_10355_" x="21.9" y="20.3" class="st3" width="1.6" height="1.9"/>
	<rect id="XMLID_10354_" x="19.6" y="23.5" class="st3" width="1.6" height="1.9"/>
	<rect id="XMLID_10353_" x="21.9" y="23.5" class="st3" width="1.6" height="1.9"/>
	<rect id="XMLID_10352_" x="6.6" y="7.9" class="st4" width="11.1" height="19.4"/>
	<rect id="XMLID_10351_" x="6.6" y="7" class="st1" width="11.1" height="1"/>
	<polygon id="XMLID_10350_" class="st2" points="6.9,4.6 6.6,7 17.8,7 17.5,4.6 	"/>
	<rect id="XMLID_10349_" x="8" y="10.1" class="st3" width="1.7" height="2.4"/>
	<rect id="XMLID_10348_" x="8" y="13.8" class="st3" width="1.7" height="2.4"/>
	<rect id="XMLID_10347_" x="8" y="17.5" class="st3" width="1.7" height="2.4"/>
	<rect id="XMLID_10346_" x="11.3" y="10.1" class="st3" width="1.7" height="2.4"/>
	<rect id="XMLID_10345_" x="11.3" y="13.8" class="st3" width="1.7" height="2.4"/>
	<rect id="XMLID_10344_" x="11.3" y="17.5" class="st3" width="1.7" height="2.4"/>
	<rect id="XMLID_10343_" x="14.6" y="10.1" class="st3" width="1.7" height="2.4"/>
	<rect id="XMLID_10342_" x="14.6" y="13.8" class="st3" width="1.7" height="2.4"/>
	<rect id="XMLID_10341_" x="14.6" y="17.5" class="st3" width="1.7" height="2.4"/>
	<rect id="XMLID_10340_" x="10.1" y="23.2" class="st3" width="4" height="4.1"/>
	<path id="XMLID_19_" class="st0" d="M14.7,23.3c-0.2-1.2-1.2-2.2-2.5-2.2c-1.3,0-2.3,1-2.5,2.2h0.1v4h0.5v-4h3.7v4h0.5v-4H14.7z"/>
</g>
</svg>
