<?xml version="1.0" encoding="utf-8"?>
<!-- Generator: Adobe Illustrator 19.2.1, SVG Export Plug-In . SVG Version: 6.00 Build 0)  -->
<svg version="1.1" id="Layer_1" xmlns="http://www.w3.org/2000/svg" xmlns:xlink="http://www.w3.org/1999/xlink" x="0px" y="0px"
	 viewBox="0 0 32 32" style="enable-background:new 0 0 32 32;" xml:space="preserve">
<style type="text/css">
	.st0{fill:#FFFFFF;}
</style>
<g id="XMLID_279_">
	<rect id="XMLID_294_" x="2" y="27.7" class="st0" width="28.1" height="1.4"/>
	<g id="XMLID_290_">
		<path id="XMLID_292_" class="st0" d="M2.8,6.9v20.8h5.4v-10v0V17h0l2.7-7l0.4-0.2V6.9H2.8z"/>
		<polygon id="XMLID_291_" class="st0" points="7.1,2.8 2,6.5 12.2,6.5 		"/>
	</g>
	<g id="XMLID_280_">
		<path id="XMLID_287_" class="st0" d="M28.3,17l-2.5-6.5l-7.1-3.2l-7.1,3.2l0,0L9.3,17H28.3z M17.2,10.8h2.9v3.1h-2.9V10.8z"/>
		<g id="XMLID_281_">
			<rect id="XMLID_286_" x="19.3" y="20.9" class="st0" width="2.4" height="2.8"/>
			<rect id="XMLID_285_" x="19.3" y="24.6" class="st0" width="2.4" height="3.2"/>
			<rect id="XMLID_284_" x="16" y="20.9" class="st0" width="2.3" height="2.8"/>
			<rect id="XMLID_283_" x="16" y="24.6" class="st0" width="2.3" height="3.2"/>
			<polygon id="XMLID_282_" class="st0" points="9.2,17.7 9.2,27.7 15.4,27.7 15.4,24.6 15.4,24 15.4,24 15.4,23.4 15.4,20.7 
				15.4,20.1 15.4,20.1 18.8,20.1 18.9,20.1 22.3,20.1 22.3,20.1 22.3,20.7 22.3,27.7 28.3,27.7 28.3,17.7 			"/>
		</g>
	</g>
</g>
</svg>
