<?xml version="1.0" encoding="utf-8"?>
<!-- Generator: Adobe Illustrator 19.2.1, SVG Export Plug-In . SVG Version: 6.00 Build 0)  -->
<svg version="1.1" id="Layer_1" xmlns="http://www.w3.org/2000/svg" xmlns:xlink="http://www.w3.org/1999/xlink" x="0px" y="0px"
	 viewBox="0 0 32 32" style="enable-background:new 0 0 32 32;" xml:space="preserve">
<style type="text/css">
	.st0{fill:#003A5D;}
	.st1{fill:#346094;}
	.st2{fill:#285075;}
	.st3{fill:#0071CE;}
	.st4{fill:#BAC4D8;}
</style>
<g>
	<path class="st0" d="M20.6,3.6V2.1c0-0.6-0.5-1.1-1-1.1h-1.2l-7.2,2.6h9.2C20.4,3.6,20.6,3.7,20.6,3.6z"/>
	<path class="st1" d="M20.4,3.6h-8.2L19.6,1h-0.1H7.6C7,1,6.5,1.5,6.5,2.2v25.2c0,0.6,0.5,1.2,1.1,1.2h11.9c0.6,0,1.2-0.5,1.2-1.2
		V3.5C20.6,3.6,20.5,3.5,20.4,3.6"/>
	<rect x="8.5" y="10.6" class="st2" width="10.2" height="0.8"/>
	<rect x="8.5" y="12.8" class="st2" width="10.2" height="0.8"/>
	<rect x="8.5" y="15.1" class="st2" width="10.2" height="0.8"/>
	<rect x="6.5" y="17.4" class="st2" width="14.1" height="6.3"/>
	<g>
		<path class="st3" d="M25.5,29.8c0,0.6-0.5,1.2-1.1,1.2H12.5c-0.6,0-1.1-0.5-1.1-1.2V4.6c0-0.6,0.5-1.2,1.1-1.2h11.9
			c0.6,0,1.1,0.5,1.1,1.2V29.8z"/>
	</g>
	<rect x="11.4" y="19.8" class="st4" width="14.1" height="6.3"/>
	<rect x="13.5" y="14.3" class="st4" width="10.2" height="0.8"/>
	<rect x="13.5" y="12.1" class="st4" width="10.2" height="0.8"/>
	<rect x="13.5" y="16.5" class="st4" width="10.2" height="0.8"/>
</g>
</svg>
