<?xml version="1.0" encoding="utf-8"?>
<!-- Generator: Adobe Illustrator 19.2.1, SVG Export Plug-In . SVG Version: 6.00 Build 0)  -->
<svg version="1.1" id="Layer_1" xmlns="http://www.w3.org/2000/svg" xmlns:xlink="http://www.w3.org/1999/xlink" x="0px" y="0px"
	 viewBox="0 0 32 32" style="enable-background:new 0 0 32 32;" xml:space="preserve">
<style type="text/css">
	.st0{fill:#0B3B5D;}
	.st1{fill:#0071CE;}
	.st2{fill:#FFFFFF;}
	.st3{fill:#346094;}
	.st4{fill:#BAC4D8;}
</style>
<g id="XMLID_2235_">
	<g id="XMLID_2232_">
		<path id="XMLID_2382_" class="st0" d="M6.7,25.6c0,0.2-0.2,0.4-0.4,0.4H3c-0.2,0-0.4-0.2-0.4-0.4v-3.2c0-0.2,0.2-0.4,0.4-0.4h3.3
			c0.2,0,0.4,0.2,0.4,0.4V25.6z"/>
		<path id="XMLID_2381_" class="st0" d="M25,25.6c0,0.2,0.2,0.4,0.4,0.4H29c0.2,0,0.4-0.2,0.4-0.4v-3.2c0-0.2-0.2-0.4-0.4-0.4h-3.5
			c-0.2,0-0.4,0.2-0.4,0.4V25.6z"/>
	</g>
	<path id="XMLID_24794_" class="st1" d="M27.5,12.9c-0.1-0.1-0.2-0.2-0.4-0.3c0.6-0.1,1.6-0.4,1.9-0.4c0.3-0.1,0.8-0.2,0.8-1.1
		c0-0.9-1.7-0.7-2.3-0.7c-0.6,0-0.3,1.1-0.3,1.1l-0.6,0.2c-0.1-0.3-0.2-0.5-0.3-0.7c-0.3-0.6-2.3-4.2-3-4.5C22.5,6,19.2,6,16,6
		c-3.2,0-6.7,0.1-7.3,0.4C7.9,6.8,5.9,10.3,5.6,11c-0.1,0.2-0.2,0.4-0.3,0.6l-0.5-0.2c0,0,0.2-1.1-0.3-1.1c-0.6,0-2.3-0.1-2.3,0.7
		c0,0.9,0.4,1,0.8,1.1c0.3,0.1,1.3,0.3,1.9,0.4c-0.1,0.1-0.2,0.3-0.4,0.3c-0.5,0.3-2.2,1.7-2.2,2.4c0,0.4,0,1.6,0,3
		c0,1.3,0,2.6,0,3.6c0,2,2.2,1.7,3.1,1.7c0.9,0,20.4,0,21.3,0c0.9,0,3.1,0.3,3.1-1.7c0-0.9,0-2.3,0-3.5c0-1.4,0-2.7,0-3.1
		C29.8,14.6,28.1,13.2,27.5,12.9z"/>
	<g id="XMLID_2233_">
		<path class="st0" d="M9.3,15.9c0,0,1,1.8,1.6,2.4c0.6,0.7,1.9,1,2.8,1c0.5,0,4,0,4.6,0c0.8,0,2.2-0.3,2.8-1
			c0.6-0.7,1.6-2.4,1.6-2.4H9.3z"/>
	</g>
	<g id="XMLID_2223_">
		<path id="XMLID_2230_" class="st2" d="M3.9,15.2c1.2,0.2,1.1,0.2,2.1,0.4c1.1,0.2,1.9,0.4,2.3,1c0.5,0.8,1.2,1.8,1.2,1.8
			S4.1,17.1,3.8,17C3.5,16.9,2.8,16.1,3.9,15.2z"/>
		<path id="XMLID_2213_" class="st2" d="M28.1,15.2c-1.2,0.2-1.1,0.2-2.1,0.4c-1.1,0.2-1.9,0.4-2.3,1c-0.5,0.8-1.2,1.8-1.2,1.8
			s5.3-1.4,5.6-1.4C28.4,16.9,29.1,16.1,28.1,15.2z"/>
	</g>
	<path id="XMLID_2229_" class="st3" d="M22.7,21.1c-1.2,0-6.7,0-6.7,0l0,0c0,0-5.4,0-6.7,0c-1.2,0-1.6,1.3-1.9,2.6h17.2
		C24.2,22.3,23.9,21.1,22.7,21.1z"/>
	<path id="XMLID_2228_" class="st2" d="M25.4,11.1c-0.4-0.9-1.6-2.9-2.1-3.6S21.3,6.8,16,6.8l0,0l0,0l0,0l0,0c-5.3,0-7,0.2-7.4,0.7
		C8.3,8,6.9,10.2,6.6,11.1C6.2,12,6.9,12,7.4,12s8.6,0,8.6,0l0,0c0,0,8.1,0,8.6,0S25.8,12,25.4,11.1z"/>
	<g id="XMLID_2224_">
		<circle id="XMLID_2222_" class="st4" cx="5.3" cy="21" r="1"/>
		<circle id="XMLID_2214_" class="st4" cx="26.7" cy="21" r="1"/>
	</g>
</g>
</svg>
