<?xml version="1.0" encoding="utf-8"?>
<!-- Generator: Adobe Illustrator 19.2.1, SVG Export Plug-In . SVG Version: 6.00 Build 0)  -->
<svg version="1.1" id="Layer_1" xmlns="http://www.w3.org/2000/svg" xmlns:xlink="http://www.w3.org/1999/xlink" x="0px" y="0px"
	 viewBox="0 0 32 32" style="enable-background:new 0 0 32 32;" xml:space="preserve">
<style type="text/css">
	.st0{fill:#0071CE;}
	.st1{fill:#346094;}
	.st2{fill:#BAC4D8;}
	.st3{fill:#003A5D;}
	.st4{fill:#FFFFFF;}
</style>
<g>
	<g id="XMLID_16433_">
		<g id="XMLID_16434_">
			<path id="XMLID_16436_" class="st0" d="M5.8,8.2L5.8,8.2c0.3-1.9,2-3.4,4.1-3.4c1.3,0,2.5,0.9,3.3,1.8c0.8-0.9,2-1.8,3.3-1.8
				c2.1,0,3.8,1.5,4.1,3.4h0c0,0,0.6,2.9-2.6,5.6c-2,1.7-4.1,2.3-4.8,2.5c-0.7-0.2-2.8-0.8-4.8-2.5C5.2,11.1,5.8,8.2,5.8,8.2"/>
			<path id="XMLID_16435_" class="st1" d="M9.7,13.6c0.6,0.2,1.1,0.4,1.7,0.5c2,0.6,2.8,0,4.9-1.3c1.1-0.7,1.8-1.6,2.5-2.7
				c0.7-1,1-2.2,1.2-3.4c0.3,0.5,0.5,1,0.6,1.5c0,0,0.6,2.9-2.6,5.6c-2,1.7-4.1,2.3-4.8,2.5c-0.7-0.2-2.8-0.8-4.8-2.5
				c-0.5-0.4-0.9-0.8-1.2-1.2C8,13,8.9,13.3,9.7,13.6"/>
		</g>
	</g>
	<path class="st1" d="M15.8,18.8l-6,2.3c0,0-1,2.4-0.1,3c1,0.6,5.4,0.2,5.4,0.2l2.3-1.8L15.8,18.8z"/>
	<path class="st2" d="M22.6,18.3v6.2c-0.7-0.3-1-0.3-2.1,0l-8.1,1.6c-0.5,0.2-1,0-1.6-0.3l-7.7-4.4c-2-1.1-0.3-3.9,1.6-2.7l5.1,2.4
		c-0.7,1.8,0.6,3,1.9,3c0.4,0,0.6,0,1-0.1l2.7-0.9c0.7-0.2,0.6-0.8-0.7-0.4l-2.2,0.7c-2.5,0.7-2.9-2.4-1.2-3l0.7-0.3l6.6-2.6
		c0.9-0.2,1.8-0.2,2.8,0.3L22.6,18.3z"/>
	<path class="st3" d="M29.3,17.8c0.3,0,0.5,0.2,0.5,0.5v8.3c0,0.3-0.2,0.5-0.5,0.5h-6.5c-0.3,0-0.5-0.2-0.5-0.5v-8.3
		c0-0.3,0.2-0.5,0.5-0.5H29.3z"/>
	<path class="st4" d="M25.2,18.8c0.5,0,0.8,0.4,0.8,0.8c0,0.4-0.4,0.8-0.8,0.8c-0.5,0-0.8-0.4-0.8-0.8
		C24.4,19.1,24.8,18.8,25.2,18.8"/>
</g>
</svg>
