<?xml version="1.0" encoding="utf-8"?>
<!-- Generator: Adobe Illustrator 19.2.1, SVG Export Plug-In . SVG Version: 6.00 Build 0)  -->
<svg version="1.1" id="Layer_1" xmlns="http://www.w3.org/2000/svg" xmlns:xlink="http://www.w3.org/1999/xlink" x="0px" y="0px"
	 viewBox="0 0 32 32" style="enable-background:new 0 0 32 32;" xml:space="preserve">
<style type="text/css">
	.st0{fill:#BAC4D8;}
	.st1{fill:#0071CE;}
	.st2{fill:#346094;}
	.st3{fill:#FFFFFF;}
	.st4{fill:#003A5D;}
</style>
<g>
	<path class="st0" d="M30.6,10.6c0-0.4-0.3-0.7-0.6-0.7H5.5c-0.1,0-0.3,0.1-0.4,0.2c-0.1,0.1-0.2,0.3-0.2,0.6v13
		c0,0.4,0.3,0.8,0.6,0.8h24.6c0.3,0,0.6-0.3,0.6-0.8V10.6C30.6,10.6,30.6,10.6,30.6,10.6z"/>
	<path class="st0" d="M5.5,9.4h24.6c0.1,0,0.2,0,0.3,0c-0.1-0.2-0.2-0.4-0.4-0.6c-0.8-0.7-7.8-2.7-8.7-2.9c-0.9-0.2-2.8-0.7-3.4-0.7
		v0c0,0,0,0,0,0c0,0,0,0,0,0v0c-0.6,0-2.5,0.5-3.4,0.7c-0.9,0.2-8,2.3-8.7,2.9C5.5,9,5.4,9.2,5.3,9.4C5.3,9.4,5.4,9.4,5.5,9.4
		L5.5,9.4z"/>
	<path class="st1" d="M27.1,26c0,0.4-0.3,0.8-0.6,0.8H1.9c-0.3,0-0.6-0.3-0.6-0.8V13c0-0.4,0.3-0.8,0.6-0.8h24.6
		c0.3,0,0.6,0.3,0.6,0.8V26z"/>
	<path class="st2" d="M2.8,13.9h3.8v0.7H2.8C2.8,14.6,2.8,13.9,2.8,13.9z"/>
	<path class="st2" d="M2.8,15.3h3.8V16H2.8C2.8,16,2.8,15.3,2.8,15.3z"/>
	<path class="st3" d="M17.8,22.9c0,0.8-0.5,1.4-1.1,1.4H5.1c-0.6,0-1.1-0.6-1.1-1.4v-0.3c0-0.8,0.5-1.4,1.1-1.4h11.5
		c0.6,0,1.1,0.6,1.1,1.4V22.9z"/>
	<path class="st4" d="M21.9,13.4h3.8v3.8h-3.8V13.4z"/>
</g>
</svg>
