<?xml version="1.0" encoding="utf-8"?>
<!-- Generator: Adobe Illustrator 19.2.1, SVG Export Plug-In . SVG Version: 6.00 Build 0)  -->
<svg version="1.1" id="Layer_1" xmlns="http://www.w3.org/2000/svg" xmlns:xlink="http://www.w3.org/1999/xlink" x="0px" y="0px"
	 viewBox="0 0 32 32" style="enable-background:new 0 0 32 32;" xml:space="preserve">
<style type="text/css">
	.st0{fill:#BAC4D8;}
	.st1{fill:#0071CE;}
	.st2{fill:#FFFFFF;}
	.st3{fill:#346094;}
	.st4{fill:#003A5D;}
</style>
<g id="XMLID_783_">
	<path id="XMLID_808_" class="st0" d="M26.9,6.4h-3H6.4c-0.9,0-1.6,0.7-1.6,1.6v13.5v0.7v5.6c0,0.9,0.7,1.6,1.6,1.6h6.3h0.7h7.3h0.7
		h5.6c0.9,0,1.6-0.7,1.6-1.6v-5.6v-0.7V8.1C28.5,7.1,27.8,6.4,26.9,6.4z"/>
	<path id="XMLID_801_" class="st1" d="M25.6,5.1h-3H5.1c-0.9,0-1.6,0.7-1.6,1.6v13.5V21v5.6c0,0.9,0.7,1.6,1.6,1.6h6.3h0.7h7.3H20
		h5.6c0.9,0,1.6-0.7,1.6-1.6V21v-0.7V6.8C27.2,5.9,26.5,5.1,25.6,5.1z"/>
	<g id="XMLID_793_">
		<path id="XMLID_800_" class="st2" d="M11.3,27.5H5.2c-0.5,0-1-0.4-1-1v-5.4h7V27.5z"/>
		<rect id="XMLID_799_" x="4.3" y="13.8" class="st2" width="7" height="6.4"/>
		<rect id="XMLID_798_" x="12.2" y="21.1" class="st2" width="7" height="6.4"/>
		<rect id="XMLID_796_" x="12.2" y="13.8" class="st2" width="7" height="6.4"/>
		<path id="XMLID_795_" class="st2" d="M26.5,26.5c0,0.5-0.4,1-1,1h-5.4v-6.4h6.4V26.5z"/>
		<rect id="XMLID_794_" x="20.1" y="13.8" class="st2" width="6.4" height="6.4"/>
	</g>
	<polygon id="XMLID_791_" class="st3" points="25.6,15.9 24.7,15 23.5,16.1 22.4,15 21.5,15.9 22.6,17.1 21.5,18.2 22.4,19.1 
		23.5,18 24.7,19.1 25.6,18.2 24.5,17.1 	"/>
	<circle id="XMLID_790_" class="st4" cx="10.4" cy="9.7" r="2.2"/>
	<circle id="XMLID_789_" class="st4" cx="20.3" cy="9.7" r="2.2"/>
	<path id="XMLID_788_" class="st0" d="M12.1,3.8c0-0.7-0.6-1.3-1.2-1.3H10c-0.7,0-1.2,0.6-1.2,1.3v5.9c0,0.7,0.6,1.3,1.2,1.3h0.8
		c0.7,0,1.2-0.6,1.2-1.3V3.8z"/>
	<path id="XMLID_785_" class="st0" d="M22,3.8c0-0.7-0.6-1.3-1.2-1.3h-0.8c-0.7,0-1.2,0.6-1.2,1.3v5.9c0,0.7,0.6,1.3,1.2,1.3h0.8
		c0.7,0,1.2-0.6,1.2-1.3V3.8z"/>
</g>
</svg>
