<?xml version="1.0" encoding="utf-8"?>
<!-- Generator: Adobe Illustrator 19.2.1, SVG Export Plug-In . SVG Version: 6.00 Build 0)  -->
<svg version="1.1" id="Layer_1" xmlns="http://www.w3.org/2000/svg" xmlns:xlink="http://www.w3.org/1999/xlink" x="0px" y="0px"
	 viewBox="0 0 32 32" style="enable-background:new 0 0 32 32;" xml:space="preserve">
<style type="text/css">
	.st0{fill:#FFFFFF;}
</style>
<g id="XMLID_57_">
	<polygon id="XMLID_62_" class="st0" points="24.7,15.1 23.5,16.3 22.4,15.1 21.5,16.1 22.6,17.2 21.5,18.3 22.4,19.3 23.5,18.1 
		24.7,19.3 25.6,18.3 24.5,17.2 25.6,16.1 	"/>
	<path id="XMLID_99_" class="st0" d="M27.2,6.6c-0.2-0.7-0.8-1.3-1.6-1.3h-3h-0.4V4c0-0.9-0.7-1.6-1.5-1.6h-0.8
		c-0.8,0-1.5,0.7-1.5,1.6v1.3h-6V4c0-0.9-0.7-1.6-1.5-1.6H10C9.2,2.4,8.5,3.1,8.5,4v1.3H5.1C4.2,5.3,3.5,6,3.5,6.9v13.5v0.7v5.6
		c0,0.8,0.6,1.4,1.3,1.6c0.2,0.7,0.8,1.3,1.6,1.3h6.3h0.7h7.3h0.7h5.6c0.9,0,1.6-0.7,1.6-1.6v-5.6v-0.7V8.2
		C28.5,7.4,27.9,6.7,27.2,6.6z M12.2,21.2h7v6.4h-7V21.2z M12.2,20.4V14h7v6.4H12.2z M20.1,21.2h6.4v5.4c0,0.5-0.4,1-1,1h-5.4V21.2z
		 M20.1,20.4V14h6.4v6.4H20.1z M18.9,4c0-0.6,0.4-1,1-1h0.8c0.5,0,1,0.5,1,1v2.6v0.9v2.5c0,0.6-0.4,1-1,1h-0.8c-0.5,0-1-0.5-1-1V7.4
		V6.5V4z M9.1,4c0-0.6,0.4-1,1-1h0.8c0.5,0,1,0.5,1,1v2.6v0.9v2.5c0,0.6-0.4,1-1,1H10c-0.5,0-1-0.5-1-1V7.4V6.5V4z M4.3,14h7v6.4h-7
		V14z M4.3,26.6v-5.4h7v6.4H5.2C4.7,27.6,4.3,27.2,4.3,26.6z M27.9,21.7v0.7V28c0,0.6-0.5,1.1-1.1,1.1h-5.6h-0.7h-7.3h-0.7H6.4
		c-0.5,0-0.9-0.3-1-0.7h6h0.7h7.3H20h5.6c0.9,0,1.6-0.7,1.6-1.6v-5.6v-0.7V7.2c0.4,0.2,0.7,0.6,0.7,1V21.7z"/>
</g>
</svg>
