<?xml version="1.0" encoding="utf-8"?>
<!-- Generator: Adobe Illustrator 19.2.1, SVG Export Plug-In . SVG Version: 6.00 Build 0)  -->
<svg version="1.1" id="Layer_1" xmlns="http://www.w3.org/2000/svg" xmlns:xlink="http://www.w3.org/1999/xlink" x="0px" y="0px"
	 viewBox="0 0 32 32" style="enable-background:new 0 0 32 32;" xml:space="preserve">
<style type="text/css">
	.st0{fill:#FFFFFF;}
</style>
<g id="XMLID_24_">
	<path id="XMLID_96_" class="st0" d="M26,16.1c0,0-2.6-3.7-6.4-5.4c1.3,1.1,2.1,2.7,2.1,4.5c0,3.3-2.7,5.9-5.9,5.9
		c-3.3,0-5.9-2.7-5.9-5.9c0-1.8,0.8-3.4,2-4.5c-4,1.7-5.9,5.3-5.9,5.3v0.1c0,0,2.7,5.5,10,5.5C22.9,21.8,26,16.1,26,16.1"/>
	<path id="XMLID_54_" class="st0" d="M18.8,15.3c0,1.7-1.4,3-3,3s-3-1.4-3-3c0-0.2,0-0.5,0.1-0.7c0.3,0.5,0.8,0.8,1.4,0.8
		c0.9,0,1.6-0.7,1.6-1.6c0-0.6-0.4-1.2-0.9-1.4c0.3-0.1,0.6-0.2,0.9-0.2C17.4,12.2,18.8,13.6,18.8,15.3 M20.8,15.3
		c0-2.8-2.3-5.1-5.1-5.1s-5.1,2.3-5.1,5.1s2.3,5.1,5.1,5.1S20.8,18.1,20.8,15.3"/>
</g>
</svg>
