<?xml version="1.0" encoding="utf-8"?>
<!-- Generator: Adobe Illustrator 19.2.1, SVG Export Plug-In . SVG Version: 6.00 Build 0)  -->
<svg version="1.1" id="Layer_1" xmlns="http://www.w3.org/2000/svg" xmlns:xlink="http://www.w3.org/1999/xlink" x="0px" y="0px"
	 viewBox="0 0 32 32" style="enable-background:new 0 0 32 32;" xml:space="preserve">
<style type="text/css">
	.st0{fill:#FFFFFF;}
</style>
<g id="XMLID_18_">
	<path class="st0" d="M16,22c-3.8,0-6.3-1.5-7.8-2.8c-1.6-1.4-2.3-2.8-2.3-2.8l0-0.1v-0.2l0,0c0.1-0.1,2-3.7,5.9-5.4l1.3-0.6l-1.1,1
		c-1.2,1.1-1.9,2.6-1.9,4.2c0,3.1,2.5,5.6,5.6,5.6c3.1,0,5.6-2.5,5.6-5.6c0-1.6-0.7-3.2-2-4.3l-1.2-1l1.4,0.6
		c3.8,1.7,6.3,5.3,6.4,5.4l0.1,0.1l-0.1,0.1C26,16.3,22.8,22,16,22z M6.3,16.2c0.3,0.5,3,5.3,9.6,5.3c6,0,9.1-4.5,9.6-5.3
		c-0.4-0.6-2.3-3-5-4.5c0.8,1.1,1.2,2.3,1.2,3.7c0,3.4-2.7,6.1-6.1,6.1c-3.4,0-6.1-2.7-6.1-6.1c0-1.3,0.4-2.6,1.2-3.6
		C8.1,13.3,6.6,15.8,6.3,16.2z"/>
	<path class="st0" d="M15.7,18.5c-1.8,0-3.2-1.4-3.2-3.2c0-0.2,0-0.5,0.1-0.7l0.1-0.6l0.3,0.5c0.2,0.4,0.7,0.7,1.1,0.7
		c0.7,0,1.3-0.6,1.3-1.3c0-0.5-0.3-1-0.8-1.2l-0.5-0.2l0.6-0.2c0.4-0.1,0.7-0.2,1-0.2c1.8,0,3.2,1.4,3.2,3.2S17.5,18.5,15.7,18.5z
		 M13,15.2C13,15.2,13,15.3,13,15.2c0,1.6,1.2,2.9,2.8,2.9s2.8-1.2,2.8-2.8c0-1.5-1.2-2.8-2.8-2.8c-0.1,0-0.2,0-0.4,0
		c0.4,0.3,0.6,0.8,0.6,1.3c0,1-0.8,1.8-1.8,1.8C13.7,15.7,13.3,15.5,13,15.2z"/>
</g>
</svg>
