<?xml version="1.0" encoding="utf-8"?>
<!-- Generator: Adobe Illustrator 19.2.1, SVG Export Plug-In . SVG Version: 6.00 Build 0)  -->
<svg version="1.1" id="Layer_1" xmlns="http://www.w3.org/2000/svg" xmlns:xlink="http://www.w3.org/1999/xlink" x="0px" y="0px"
	 viewBox="0 0 32 32" style="enable-background:new 0 0 32 32;" xml:space="preserve">
<style type="text/css">
	.st0{fill:#BAC4D8;}
	.st1{fill:#0071CE;}
	.st2{fill:#346094;}
	.st3{fill:#FFFFFF;}
</style>
<g>
	<path id="XMLID_18302_" class="st0" d="M28.5,29.5c0,0.8-0.7,1.5-1.5,1.5H8c-0.8,0-1.5-0.7-1.5-1.5V5.6C6.5,4.7,7.2,4,8,4h19
		c0.8,0,1.5,0.7,1.5,1.5V29.5z"/>
	<path id="XMLID_18301_" class="st1" d="M20.5,28H5c-0.8,0-1.5-0.7-1.5-1.5V2.5C3.5,1.7,4.1,1,5,1h19c0.8,0,1.5,0.7,1.5,1.5v19.9"/>
	<path id="XMLID_18300_" class="st2" d="M20.5,28v-3.8c0-1,0.8-1.7,1.7-1.7h3.3L20.5,28z"/>
	<rect id="XMLID_7956_" x="7.8" y="6.5" class="st3" width="13.7" height="0.8"/>
	<rect id="XMLID_7955_" x="7.8" y="9.4" class="st3" width="13.7" height="6.5"/>
	<rect id="XMLID_7952_" x="7.8" y="17.9" class="st3" width="13.7" height="0.8"/>
	<rect id="XMLID_7951_" x="7.8" y="20.8" class="st3" width="7.7" height="0.8"/>
</g>
</svg>
