<?xml version="1.0" encoding="utf-8"?>
<!-- Generator: Adobe Illustrator 19.2.1, SVG Export Plug-In . SVG Version: 6.00 Build 0)  -->
<svg version="1.1" id="Layer_1" xmlns="http://www.w3.org/2000/svg" xmlns:xlink="http://www.w3.org/1999/xlink" x="0px" y="0px"
	 viewBox="0 0 32 32" style="enable-background:new 0 0 32 32;" xml:space="preserve">
<style type="text/css">
	.st0{fill:#BAC4D8;}
	.st1{fill:#0071CE;}
	.st2{fill:#346094;}
	.st3{fill:#003A5D;}
	.st4{fill:#FFFFFF;}
</style>
<g>
	<path class="st0" d="M28.5,29.5c0,0.8-0.7,1.5-1.5,1.5H8c-0.8,0-1.5-0.7-1.5-1.5V5.6C6.5,4.7,7.2,4,8,4h19c0.8,0,1.5,0.7,1.5,1.5
		C28.5,5.6,28.5,29.5,28.5,29.5z"/>
	<path class="st1" d="M20.5,28H5c-0.8,0-1.5-0.7-1.5-1.5V2.5C3.5,1.7,4.1,1,5,1h19c0.8,0,1.5,0.7,1.5,1.5v19.9L20.5,28z"/>
	<path class="st2" d="M20.5,28v-3.8c0-1,0.8-1.7,1.7-1.7h3.3L20.5,28L20.5,28z"/>
	<path class="st3" d="M7.5,5.2h5.8v1.5H7.5C7.5,6.7,7.5,5.2,7.5,5.2z"/>
	<path class="st4" d="M7.5,11.4h13.9v5.8H7.5C7.5,17.3,7.5,11.4,7.5,11.4z"/>
	<path class="st4" d="M7.5,19.8h14v0.8h-14C7.5,20.5,7.5,19.8,7.5,19.8z"/>
	<path class="st4" d="M7.5,22.8h11.1v0.8H7.5C7.5,23.6,7.5,22.8,7.5,22.8z"/>
</g>
</svg>
