<?xml version="1.0" encoding="utf-8"?>
<!-- Generator: Adobe Illustrator 19.2.1, SVG Export Plug-In . SVG Version: 6.00 Build 0)  -->
<svg version="1.1" id="Layer_1" xmlns="http://www.w3.org/2000/svg" xmlns:xlink="http://www.w3.org/1999/xlink" x="0px" y="0px"
	 viewBox="0 0 32 32" enable-background="new 0 0 32 32" xml:space="preserve">
<g id="XMLID_8444_">
	<g id="XMLID_8449_">
		<g id="XMLID_8658_">
			<path id="XMLID_8659_" fill="#FFFFFF" d="M15.564,27.364h-4.454v-4.04h4.454V27.364z M11.76,26.714h3.155v-2.741H11.76V26.714z"
				/>
		</g>
		<g id="XMLID_8654_">
			<path id="XMLID_8655_" fill="#FFFFFF" d="M26.127,27.364h-4.454V14.631h4.454V27.364z M22.322,26.714h3.155V15.281h-3.155V26.714
				z"/>
		</g>
		<g id="XMLID_8450_">
			<path id="XMLID_8451_" fill="#FFFFFF" d="M20.845,27.364h-4.454v-8.799h4.454V27.364z M17.041,26.714h3.155v-7.5h-3.155V26.714z"
				/>
		</g>
	</g>
	<g id="XMLID_8445_">
		<path id="XMLID_8446_" fill="#FFFFFF" d="M9.023,24.889L5.873,21.74L20.161,7.453l-2.817-2.816h8.783v8.783l-2.817-2.818
			L9.023,24.889z M6.793,21.74l2.23,2.231L23.31,9.684l2.167,2.166V5.286h-6.563l2.166,2.166L6.793,21.74z"/>
	</g>
</g>
</svg>
