<?xml version="1.0" encoding="utf-8"?>
<!-- Generator: Adobe Illustrator 19.2.1, SVG Export Plug-In . SVG Version: 6.00 Build 0)  -->
<svg version="1.1" id="Layer_1" xmlns="http://www.w3.org/2000/svg" xmlns:xlink="http://www.w3.org/1999/xlink" x="0px" y="0px"
	 viewBox="0 0 32 32" enable-background="new 0 0 32 32" xml:space="preserve">
<g id="XMLID_7644_">
	<path id="XMLID_7642_" fill="#346094" d="M6.887,9.827c0,0,2.411-0.423,4.195,0.08c1.787,0.504,4.558,1.71,6.471,2.95
		c1.915,1.241,6.561,4.319,7.434,4.893c1.296,0.852,0.07,2.775-1.022,2.151c-1.092-0.624-1.18-0.662-1.408-0.835
		c-0.227-0.172-0.387-0.29-0.077-0.067c0.311,0.22,0.397,0.338,0.769,0.567c0.702,0.436-0.109,2.4-1.342,1.718
		c-0.894-0.493-1.304-0.71-1.615-0.93c-0.312-0.221,0.018,0.101,0.16,0.226c0.143,0.125,0.402,0.083,0.852,0.435
		c0.825,0.642-0.492,2.214-1.332,1.735c-0.839-0.48-1.277-0.711-1.557-0.879c-0.281-0.168-0.21-0.027,0.022,0.104
		c0.239,0.134,0.145,0.093,0.515,0.27c0.834,0.399-0.264,1.988-1.248,1.385c-0.983-0.605-2.94-1.707-2.94-1.707l-8.101-3.235
		c0,0-0.685-0.195-1.303-0.179C5.223,16.905,5.76,11.814,6.887,9.827z"/>
	<path id="XMLID_7641_" fill="#BAC4D8" d="M6.887,9.827c0,0,2.411-0.423,4.195,0.08c1.787,0.504,4.558,1.71,6.471,2.95
		c1.915,1.241,6.561,4.319,7.434,4.893c1.296,0.852-0.267,2.123-1.359,1.498c-1.091-0.625-3.153-1.833-3.381-2.005
		c-0.227-0.173-0.553-0.07-0.242,0.151c0.311,0.221,2.756,1.84,3.127,2.07c0.702,0.437-0.236,1.897-1.245,1.272
		c-0.868-0.536-3.251-2.024-3.563-2.245c-0.311-0.22-0.389,0.214-0.245,0.339c0.142,0.125,2.727,1.691,3.178,2.041
		c0.825,0.641-0.609,1.796-1.448,1.315c-0.84-0.48-2.305-1.415-2.585-1.583c-0.281-0.169-0.229,0.204-0.028,0.379
		c0.2,0.174,1.352,0.995,1.72,1.173c0.835,0.399-0.277,1.649-1.26,1.044c-0.983-0.603-2.892-1.7-2.892-1.7l-7.858-3.293
		c0,0-0.9-0.314-1.518-0.297C5.252,16.306,5.76,11.814,6.887,9.827z"/>
	<path id="XMLID_7639_" fill="#003A5D" d="M8.559,18.881c0.25-0.663,2.141-1.303,2.32,0.135c0.742-1.288,2.661-0.801,2.28,1.081
		c0.632-0.985,2.314-0.375,2.143,1.062c-0.169,1.435-0.546,2.995-1.609,2.772c-1.064-0.223-1.024-1.194-1.024-1.194
		c-0.622,1.173-2.266,0.668-2.233-0.786c-0.156,0.439-1.665,0.812-1.974-0.186c-0.74,0.186-1.411,0.203-1.841-1.353
		c-0.43-1.557-0.124-2.197,0.782-2.339C8.306,17.93,8.488,18.617,8.559,18.881z"/>
	<path id="XMLID_7638_" fill="#003A5D" d="M13.846,8.201c-1.016,0.069-4.087,2.324-5.259,3.265c-1.173,0.941,0.19,3.105,1.463,2.507
		c1.271-0.598,3.814-2.386,4.055-2.403c0.24-0.016,1.008,0.173,2.237,0.841c1.227,0.669,9.152,5.635,9.152,5.635l1.399-0.365
		c-0.059-1.233-0.942-6.649-2.642-7.131c0,0-2.069,0.411-2.603,0.447C21.648,10.997,14.917,8.127,13.846,8.201z"/>
	<path id="XMLID_7637_" fill="#0071CE" d="M13.846,8.201c-1.016,0.069-4.087,2.324-5.259,3.265
		c-1.173,0.941,0.535,2.425,1.807,1.826c1.273-0.6,3.814-2.387,4.056-2.403c0.24-0.017,1.006,0.172,2.235,0.841
		c1.229,0.669,8.681,5.683,8.681,5.683l1.477-0.284c-0.058-1.233-0.892-6.096-2.592-6.578c0,0-2.069,0.411-2.603,0.447
		C21.648,10.997,14.917,8.127,13.846,8.201z"/>
	<path id="XMLID_7636_" fill="#0071CE" d="M7.217,18.102c-0.264,0.079-0.792,0.334-0.798,0.98c-0.004,0.645,0.287,2.049,0.608,2.283
		c0.32,0.233,0.689,0.305,0.953,0.068c0.264-0.238,0.294-0.35,0.209-1.586C8.105,18.616,8,17.976,7.217,18.102z"/>
	<path id="XMLID_7635_" fill="#0071CE" d="M14.251,19.603c-0.272-0.032-0.861-0.008-1.121,0.582
		c-0.261,0.591-0.548,2.363-0.409,2.735c0.149,0.403,0.851,0.853,1.315,0.555c0.747-0.481,0.68-1.096,0.794-1.905
		C15.014,20.261,15.019,19.799,14.251,19.603z"/>
	<path id="XMLID_7634_" fill="#0071CE" d="M9.647,18.109c-0.263,0.028-0.873-0.007-1.042,0.713c-0.169,0.718-0.201,2.553,0.035,2.89
		c0.235,0.334,0.732,0.474,1.035,0.273c0.302-0.204,0.527-0.462,0.637-1.869C10.422,18.709,10.399,18.153,9.647,18.109z"/>
	<path id="XMLID_7633_" fill="#0071CE" d="M12.085,18.268c-0.264-0.005-0.918-0.068-1.173,0.625
		c-0.255,0.694-0.606,2.779-0.387,3.426c0.199,0.593,0.881,0.54,1.207,0.377c0.325-0.165,0.658-0.885,0.94-2.268
		C12.952,19.043,12.826,18.403,12.085,18.268z"/>
	<g id="XMLID_7648_">
		<polygon id="XMLID_7632_" fill="#0071CE" points="3.977,8.638 2.499,18.069 5.777,18.647 7.269,9.196 		"/>
		<polygon id="XMLID_7629_" fill="#003A5D" points="2.773,8.138 1.171,18.233 4.449,18.81 6.065,8.695 		"/>
	</g>
	<g id="XMLID_7645_">
		<polygon id="XMLID_7628_" fill="#BAC4D8" points="26.736,8.708 29.492,17.846 26.325,18.867 23.552,9.711 		"/>
		<polygon id="XMLID_7621_" fill="#346094" points="27.86,8.047 30.829,17.827 27.662,18.849 24.674,9.051 		"/>
	</g>
</g>
</svg>
