<?xml version="1.0" encoding="utf-8"?>
<!-- Generator: Adobe Illustrator 19.2.1, SVG Export Plug-In . SVG Version: 6.00 Build 0)  -->
<svg version="1.1" id="Layer_1" xmlns="http://www.w3.org/2000/svg" xmlns:xlink="http://www.w3.org/1999/xlink" x="0px" y="0px"
	 viewBox="0 0 32 32" style="enable-background:new 0 0 32 32;" xml:space="preserve">
<style type="text/css">
	.st0{fill:#FFFFFF;}
</style>
<g id="XMLID_6_">
	<polygon id="XMLID_12_" class="st0" points="10.5,25.2 10.9,25.2 10.9,25.9 11.9,25.9 11.9,20.4 14.6,20.4 14.6,25.9 15.7,25.9 
		15.7,25.2 16,25.2 16,18.7 10.5,18.7 	"/>
	<path id="XMLID_373_" class="st0" d="M27.8,16.2V12l0,0V6.7h-6.3l-1.6-1.4l-6.2,4.9H9l-7,8.5h1.1v7.9h6.1v-1.4h0.3v-6.5H8.7
		l3.1-1.7h0l1.6-0.9l1.8,1h0l2.7,1.5h0H17v6.5h0.3v1.4h10.5v-7.9H30L27.8,16.2z M7.9,24.7H5.4v-3.8h2.5V24.7z M11.8,12.2h-0.4v0.4
		v4.3l-2.8,1.5H2.8l6.4-7.7h4.6h0.1l0.1-0.1l6-4.8L21.3,7l0.1,0.1h0.1h5.9v4.2l-4.6-3.9l-0.2-0.2l-0.2,0.2l-6,4.8H11.8z M24.8,12.2
		v2.9h-4.4v-2.9H24.8z M13.6,13.8h2.5v1.3h-2.5V13.8z M24.8,25.2h-4.4v-5.1h4.4V25.2z M18,18.4l-3.3-1.8h12.8l1.6,1.8H18z"/>
</g>
</svg>
