<?xml version="1.0" encoding="utf-8"?>
<!-- Generator: Adobe Illustrator 19.2.1, SVG Export Plug-In . SVG Version: 6.00 Build 0)  -->
<svg version="1.1" id="Layer_1" xmlns="http://www.w3.org/2000/svg" xmlns:xlink="http://www.w3.org/1999/xlink" x="0px" y="0px"
	 viewBox="0 0 32 32" style="enable-background:new 0 0 32 32;" xml:space="preserve">
<style type="text/css">
	.st0{fill:#0071CE;}
	.st1{fill:#BAC4D8;}
	.st2{fill:#FFFFFF;}
</style>
<g>
	<path id="XMLID_8_" class="st0" d="M28,6.6H3.7c-0.8,0-1.5,0.9-1.5,1.7v15.6c0,0.8,0.7,1.5,1.5,1.5H28c0.8,0,1.8-0.7,1.8-1.5V8.3
		C29.8,7.5,28.8,6.6,28,6.6z"/>
	<rect id="XMLID_1_" x="15.8" y="8.2" class="st1" width="0.4" height="15.7"/>
	<g>
		<path class="st2" d="M10.6,13.7v3.1l-0.4-0.4v1.2c0,0.2,0,0.5-0.2,0.6l0,0l0.5,0.4H12v-4.9H10.6z"/>
		<path class="st2" d="M7.4,15.6L8,16.3c-0.1-0.2-0.1-0.5,0-0.7l0.1-0.1c-0.1-0.3,0-0.7,0.2-0.9l-0.8-0.9H6v4.9h1.4V15.6z"/>
		<path class="st2" d="M10.5,19c0.3,0,0.6,0,0.8,0.1c0.1,0,0.1,0.1,0.1,0.2c-0.1,0-0.3,0-0.3,0v0.1c0,0,0.2,0,0.3,0
			c0,0,0.3,0,0.3,0.2c-0.1,0-0.3,0-0.3,0c-0.2,0-0.3,0.1-0.5,0.2c-0.2,0.1-0.4,0.2-0.6,0.2c0.1-0.1,0.3-0.4,0.3-0.4l-0.3-0.1
			l0.2-0.2l-0.4-0.2C10.3,19,10.4,19,10.5,19 M10,18.1c-0.2,0.2-0.4,0.4-0.3,0.6l0,0c0,0.2,0.2,0.2,0.2,0.2l0.5,0.2l-0.3,0.2
			l0.4,0.1c0,0-0.3,0.3-0.4,0.4c-0.1,0-0.2,0-0.3,0c-0.8,0-1.8-0.5-2.1-0.5c-0.3,0-0.7,0.2-0.7,0.2l0.2-0.2c0,0-0.3,0-0.5,0l0.4-0.2
			c-0.3,0-0.6-0.1-0.7-0.2c0,0,0.6,0,1.4,0c0.3,0,0.9,0,0.9,0C8.3,19,8.1,18.8,8,18.5l0.5,0.1c-0.2-0.1-0.5-0.5-0.6-0.7l0.6,0.2
			C8.3,18,8,17.6,7.9,17.3l0.5,0.3c-0.1-0.1-0.5-0.8-0.4-1l0.4,0.3c-0.2-0.2-0.5-0.9-0.3-1.2c0.1,0.5,0.4,0.7,0.4,0.7
			c-0.2-0.3-0.6-1.3-0.2-1.7c0.1,1,0.5,1.3,0.5,1.3c-0.4-0.6-0.7-2.2,0-2.6C8.7,14.5,9,15.1,9,15.1c-0.2-1-0.2-2.4,0.5-2.5
			c-0.4,1.1-0.1,1.9-0.1,1.9c0-2.5,0.7-2.5,0.7-2.5s-0.1,0.7-0.1,2v3.6C10.1,17.8,10.1,18,10,18.1"/>
	</g>
	<g id="picture_1_">
		<path class="st2" d="M27,12.5h-8c-0.2,0-0.3,0.1-0.3,0.3v6.5c0,0.2,0.1,0.3,0.3,0.3h8c0.2,0,0.3-0.1,0.3-0.3v-6.5
			C27.3,12.6,27.1,12.5,27,12.5z M26.6,16.6l-1.3-1.3c0,0-0.4-0.4-0.7-0.4c-0.4,0-0.7,0.4-0.7,0.4s-0.9,1.1-1.3,1.4
			c0.6,0.3,1.4,1.7,0.8,1.3c-0.7-0.4-1.8-0.9-1.8-0.9l-2.2,1.4v-5.4h7.2L26.6,16.6L26.6,16.6z M20,14.6c0-0.4,0.4-0.8,0.8-0.8
			s0.8,0.4,0.8,0.8s-0.4,0.8-0.8,0.8S20,15.1,20,14.6z"/>
	</g>
</g>
</svg>
