<?xml version="1.0" encoding="utf-8"?>
<!-- Generator: Adobe Illustrator 19.2.1, SVG Export Plug-In . SVG Version: 6.00 Build 0)  -->
<svg version="1.1" id="Layer_1" xmlns="http://www.w3.org/2000/svg" xmlns:xlink="http://www.w3.org/1999/xlink" x="0px" y="0px"
	 viewBox="0 0 32 32" style="enable-background:new 0 0 32 32;" xml:space="preserve">
<style type="text/css">
	.st0{fill:#0071CE;}
	.st1{fill:#FFFFFF;}
</style>
<rect x="3" y="3" class="st0" width="26" height="26"/>
<g>
	<path class="st1" d="M20,10.5v7.5L19,17v2.9c0,0.6,0,1.1-0.4,1.5c0,0-0.1,0.1-0.1,0.1l1.1,1h3.6v-12H20z"/>
	<path class="st1" d="M12,15.2l1.6,1.5c-0.2-0.6-0.2-1.2,0-1.6l0.2-0.2c-0.2-0.8-0.1-1.7,0.4-2.2l-1.9-2.2H8.7v12H12V15.2z"/>
	<path class="st1" d="M19.6,23.3c0.8,0,1.4,0.1,1.9,0.2c0.2,0,0.3,0.3,0.3,0.4c-0.3,0-0.7-0.1-0.7-0.1l0,0.3c0,0,0.4-0.1,0.8-0.1
		c0,0,0.8,0,0.8,0.5c-0.2-0.1-0.7-0.1-0.8-0.1c-0.4,0-0.8,0.3-1.3,0.5c-0.4,0.2-0.9,0.5-1.4,0.6c0.2-0.2,0.8-0.9,0.8-0.9l-0.8-0.3
		l0.6-0.6l-1-0.5C19.2,23.3,19.4,23.3,19.6,23.3 M18.4,21.2c-0.4,0.4-0.9,1-0.7,1.5l0,0c0.1,0.4,0.6,0.6,0.6,0.6l1.1,0.6l-0.7,0.6
		l0.9,0.3c0,0-0.8,0.8-0.9,0.9c-0.2,0-0.5,0-0.7,0c-1.9,0-4.4-1.1-5.1-1.1c-0.8,0-1.7,0.5-1.7,0.5l0.5-0.5c0,0-0.7,0.1-1.3,0.1
		l0.9-0.6c-0.8,0-1.5-0.3-1.8-0.5c0,0,1.5-0.1,3.4-0.1c0.8,0,2.2,0.1,2.2,0.1c-0.7-0.3-1.3-0.7-1.6-1.3l1.3,0.2
		c-0.5-0.3-1.3-1.1-1.5-1.8l1.4,0.5c-0.3-0.3-1.1-1.1-1.3-2l1.1,0.7c-0.3-0.3-1.1-1.9-1-2.4l1,0.7c-0.5-0.6-1.1-2.3-0.7-2.9
		c0.3,1.2,1,1.7,1,1.7c-0.5-0.7-1.5-3.1-0.5-4.1c0.3,2.4,1.3,3.2,1.3,3.2c-0.9-1.4-1.8-5.4,0-6.3c-0.4,2.6,0.5,4.1,0.5,4.1
		c-0.5-2.4-0.5-5.9,1.3-6.2c-0.9,2.6-0.3,4.6-0.3,4.6c-0.1-6.1,1.8-6,1.8-6s-0.3,1.7-0.3,4.8v8.8C18.7,20.5,18.7,20.9,18.4,21.2"/>
</g>
</svg>
