<?xml version="1.0" encoding="utf-8"?>
<!-- Generator: Adobe Illustrator 19.2.1, SVG Export Plug-In . SVG Version: 6.00 Build 0)  -->
<svg version="1.1" id="Layer_1" xmlns="http://www.w3.org/2000/svg" xmlns:xlink="http://www.w3.org/1999/xlink" x="0px" y="0px"
	 viewBox="0 0 32 32" style="enable-background:new 0 0 32 32;" xml:space="preserve">
<style type="text/css">
	.st0{fill:#0071CE;}
	.st1{fill:#BAC4D8;}
	.st2{fill:#FFFFFF;}
	.st3{fill:#003A5D;}
</style>
<g id="XMLID_12596_">
	<g id="XMLID_13094_">
		<polygon id="XMLID_13147_" class="st0" points="8.9,8 3.5,10.8 3.5,29.1 8.9,26.4 		"/>
		<polygon id="XMLID_13146_" class="st1" points="14.3,10.8 8.9,8 8.9,26.4 14.3,29.1 		"/>
		<polygon id="XMLID_13096_" class="st0" points="19.7,8 14.3,10.8 14.3,29.1 19.7,26.4 		"/>
		<polygon id="XMLID_13095_" class="st1" points="25.1,10.8 19.7,8 19.7,26.4 25.1,29.1 		"/>
	</g>
	<g id="XMLID_12780_">
		<g id="XMLID_12783_">
			<g id="XMLID_13084_">
				<path id="XMLID_13093_" class="st2" d="M6.6,19.4v-0.9c0.2,0,0.5,0,0.7-0.1l0.2,0.8C7.2,19.4,6.9,19.4,6.6,19.4z"/>
			</g>
			<g id="XMLID_13057_">
				<path id="XMLID_13058_" class="st2" d="M9.2,18.6l-0.4-0.7c0.5-0.3,0.9-0.6,1.4-1l0.5,0.7C10.2,17.9,9.7,18.3,9.2,18.6z
					 M19.3,18.3c-0.3-0.2-0.6-0.5-0.9-0.7l-0.5-0.4l0.5-0.7l0.5,0.4c0.3,0.2,0.6,0.5,0.9,0.7L19.3,18.3z M12.1,16.6l-0.5-0.7
					c0.6-0.4,1.1-0.6,1.7-0.8l0.3,0.8C13.1,16,12.6,16.2,12.1,16.6z M16.5,16.3c-0.5-0.3-1-0.5-1.5-0.5l0.1-0.9
					c0.6,0.1,1.2,0.3,1.8,0.7L16.5,16.3z"/>
			</g>
			<g id="XMLID_12784_">
				<path id="XMLID_12785_" class="st2" d="M21.9,19.4c-0.3,0-0.6-0.1-1-0.2l0.3-0.8c0.2,0.1,0.5,0.1,0.7,0.1V19.4z"/>
			</g>
		</g>
		<ellipse id="XMLID_12782_" class="st2" cx="5.9" cy="19" rx="1.1" ry="1.3"/>
		<ellipse id="XMLID_12781_" class="st2" cx="22.7" cy="19" rx="1.1" ry="1.3"/>
	</g>
	<g id="XMLID_12597_">
		<path id="XMLID_12779_" class="st3" d="M28.5,8.8c0,3.3-5.9,10.2-5.9,10.2s-5.9-6.9-5.9-10.2c0-3.3,2.7-5.9,5.9-5.9
			C25.8,2.8,28.5,5.5,28.5,8.8z"/>
		<circle id="XMLID_12742_" class="st2" cx="22.5" cy="8.8" r="3.2"/>
	</g>
</g>
</svg>
