<?xml version="1.0" encoding="utf-8"?>
<!-- Generator: Adobe Illustrator 19.2.1, SVG Export Plug-In . SVG Version: 6.00 Build 0)  -->
<svg version="1.1" id="Layer_1" xmlns="http://www.w3.org/2000/svg" xmlns:xlink="http://www.w3.org/1999/xlink" x="0px" y="0px"
	 viewBox="0 0 32 32" style="enable-background:new 0 0 32 32;" xml:space="preserve">
<style type="text/css">
	.st0{fill:#FFFFFF;}
</style>
<g id="XMLID_17_">
	<path id="XMLID_18_" class="st0" d="M23.1,13.1h-0.8h-1.5v1.5v3.6c0,2.7-2.1,4.9-4.8,4.9h0c-2.7,0-4.8-2.1-4.8-4.9v-3.6v-1.5H10
		H8.9v1.5H10v3.6c0,3,2,5.7,4.8,6.3v1.7h-0.6v1.2h3.5v-1.2h-0.6v-1.6c2.9-0.5,5.2-3.3,5.2-6.3v-3.6h0.8V13.1z"/>
	<path id="XMLID_55_" class="st0" d="M16,22L16,22c0.1,0,0.1,0,0.2,0c2.1,0,3.9-1.8,3.9-3.9V12h-2.7v-1.2H20V10h-2.7V8.9H20V8.5
		c0-0.2,0-0.4-0.1-0.4h-2.6V7h2.3c-0.6-1.5-1.9-2.3-3.5-2.3c0,0-0.1,0-0.1,0H16c-1.6,0-2.9,0.8-3.6,2.3h2.2v1.2H12
		c0,0-0.1,0.2-0.1,0.4v0.4h2.7V10H12v0.8h2.7V12H12V18C12,20.2,13.8,22,16,22z"/>
</g>
</svg>
