<?xml version="1.0" encoding="utf-8"?>
<!-- Generator: Adobe Illustrator 19.2.1, SVG Export Plug-In . SVG Version: 6.00 Build 0)  -->
<svg version="1.1" id="Layer_1" xmlns="http://www.w3.org/2000/svg" xmlns:xlink="http://www.w3.org/1999/xlink" x="0px" y="0px"
	 viewBox="0 0 32 32" style="enable-background:new 0 0 32 32;" xml:space="preserve">
<style type="text/css">
	.st0{fill:#FFFFFF;}
</style>
<g>
	<path class="st0" d="M18.8,22.8c0,0.6-0.7,1-1.4,1v-2.3C18.1,21.9,18.8,22.2,18.8,22.8L18.8,22.8z M14,16.5c0-0.5,0.7-0.9,1.4-1
		v2.2C14,17.4,14,17,14,16.5L14,16.5z M22.1,21.2c-0.4-1.7-1.9-2.5-4.7-3.1v-2.4c0.7,0.2,1.9,0.7,2.7,1.3l1.7-2.8
		c-1.3-0.8-3-1.4-4.4-1.6v-1.3h-2.1v1.2c-3.4,0.2-4.8,1.9-4.8,4.3v0c0,0.6,0.1,1.1,0.2,1.6c0.5,1.5,2,2.3,4.6,2.9v2.5
		c-1.4-0.2-2.4-0.8-3.8-1.7l-1.8,2.7c1.5,1.1,3.5,1.8,5.6,2.1v2.3h2.1v-2.3c2.8-0.3,4.8-1.8,4.8-4.3v0C22.2,22,22.2,21.6,22.1,21.2"
		/>
	<path class="st0" d="M14.5,9.9c0.5-0.2,1.1-0.3,1.8-0.3h0c1.4,0,2.5,0.4,3.2,1.1l0-2.8h1.9l-5.2-5l-5.2,5H13l0,3
		C13.5,10.4,13.9,10.1,14.5,9.9"/>
</g>
</svg>
