<?xml version="1.0" encoding="utf-8"?>
<!-- Generator: Adobe Illustrator 19.2.1, SVG Export Plug-In . SVG Version: 6.00 Build 0)  -->
<svg version="1.1" id="Layer_1" xmlns="http://www.w3.org/2000/svg" xmlns:xlink="http://www.w3.org/1999/xlink" x="0px" y="0px"
	 viewBox="0 0 32 32" enable-background="new 0 0 32 32" xml:space="preserve">
<g>
	<path id="XMLID_12295_" fill="#0071CE" d="M20.297,4.636h-8.595c-1.141,0-2.066,0.864-2.066,1.933v18.863
		c0,1.068,0.925,1.932,2.066,1.932h8.595c1.141,0,2.066-0.864,2.066-1.932V6.569C22.364,5.5,21.439,4.636,20.297,4.636"/>
	<path id="XMLID_12294_" fill="#003A5D" d="M17.325,5.918c0-0.118-0.095-0.213-0.213-0.213H14.89c-0.118,0-0.214,0.095-0.214,0.213
		v0.223c0,0.119,0.096,0.215,0.214,0.215h2.222c0.118,0,0.213-0.096,0.213-0.215V5.918z"/>
	<g id="XMLID_11233_">
		<rect id="XMLID_12291_" x="10.963" y="8.202" fill="#FFFFFF" width="10.074" height="15.144"/>
	</g>
	<path id="XMLID_12289_" fill="#003A5D" d="M17.071,25.287c0,0.591-0.479,1.071-1.071,1.071c-0.591,0-1.071-0.48-1.071-1.071
		c0-0.591,0.48-1.071,1.071-1.071C16.592,24.216,17.071,24.696,17.071,25.287"/>
</g>
</svg>
