<?xml version="1.0" encoding="utf-8"?>
<!-- Generator: Adobe Illustrator 19.2.1, SVG Export Plug-In . SVG Version: 6.00 Build 0)  -->
<svg version="1.1" id="Layer_1" xmlns="http://www.w3.org/2000/svg" xmlns:xlink="http://www.w3.org/1999/xlink" x="0px" y="0px"
	 viewBox="0 0 32 32" style="enable-background:new 0 0 32 32;" xml:space="preserve">
<style type="text/css">
	.st0{fill:#FFA400;}
	.st1{fill:#346094;}
	.st2{fill:#0071CE;}
	.st3{fill:#8EA0C0;}
	.st4{fill:#003A5D;}
	.st5{fill:#FFFFFF;}
	.st6{fill:#BAC4D8;}
</style>
<g>
	<path class="st0" d="M27.9,25.4c-0.1,0-0.2,0.1-0.3,0.1H8.8l5,0L27.9,25.4z"/>
	<path class="st0" d="M29.2,24.7C29.2,24.7,29.2,24.7,29.2,24.7C29.2,24.7,29.2,24.7,29.2,24.7c0.1,0.4-0.2,0.7-0.7,0.7
		C28.8,25.3,29.1,25,29.2,24.7"/>
	<path class="st0" d="M28.5,25.4C28.5,25.4,28.5,25.4,28.5,25.4L28.5,25.4L28.5,25.4C28.5,25.4,28.5,25.4,28.5,25.4
		C28.5,25.4,28.5,25.4,28.5,25.4"/>
	<path class="st1" d="M2.3,10.7c-0.2-0.5,0.1-0.9,0.7-0.9l2.7,0l8.1,0l8.3,0c0.6,0,1.2,0.4,1.4,0.9l5.2,13.9c0,0.1,0,0.1,0,0.1
		c-0.1,0.4-0.4,0.6-0.7,0.7c0,0,0,0,0,0L8.8,25.5c-0.6,0-1.4,0.1-1.6-0.4L2.3,10.7z"/>
	<path class="st0" d="M27.9,25.4C27.9,25.4,27.9,25.4,27.9,25.4l-14.1,0l-5,0L27.9,25.4C27.9,25.4,27.9,25.4,27.9,25.4"/>
	<path class="st0" d="M29.2,24.7C29.2,24.7,29.2,24.7,29.2,24.7c-0.1,0.4-0.4,0.6-0.7,0.7c0,0,0,0,0,0C28.8,25.3,29.1,25,29.2,24.7"
		/>
	<path class="st2" d="M29.8,24.8c0,0.6-0.5,1.1-1.1,1.1H8.3c-0.6,0-1.1-0.5-1.1-1.1V7.2c0-0.6,0.5-1.1,1.1-1.1h20.4
		c0.6,0,1.1,0.5,1.1,1.1V24.8z"/>
	<rect x="9.7" y="8.9" class="st3" width="17.9" height="3.1"/>
	<rect x="9.7" y="12.7" class="st4" width="17.9" height="0.7"/>
	<rect x="9.7" y="14.9" class="st5" width="6.3" height="3.5"/>
	<rect x="18.3" y="14.9" class="st6" width="9.2" height="0.8"/>
	<rect x="18.3" y="17.6" class="st6" width="9.2" height="0.8"/>
	<rect x="9.5" y="20" class="st6" width="18" height="0.8"/>
	<rect x="9.5" y="22.3" class="st6" width="18" height="0.8"/>
</g>
</svg>
