<?xml version="1.0" encoding="utf-8"?>
<!-- Generator: Adobe Illustrator 19.2.1, SVG Export Plug-In . SVG Version: 6.00 Build 0)  -->
<svg version="1.1" id="Layer_1" xmlns="http://www.w3.org/2000/svg" xmlns:xlink="http://www.w3.org/1999/xlink" x="0px" y="0px"
	 viewBox="0 0 32 32" style="enable-background:new 0 0 32 32;" xml:space="preserve">
<style type="text/css">
	.st0{fill:#FFFFFF;}
</style>
<g id="XMLID_6_">
	<polygon id="XMLID_2456_" class="st0" points="2,4.1 2.7,5.9 29.1,5.9 30,4.1 	"/>
	<path id="XMLID_2462_" class="st0" d="M2.7,6.6v19.6h8.2V15h4.6h0.6h4.3v11.2h8.6V6.6H2.7z M9.9,23.9H4.4V15h5.5V23.9z M9.9,13.7
		H4.4V9.4h5.5V13.7z M20.2,13.7h-9.1V9.4h9.1V13.7z M27.3,23.9h-5.5V15h5.5V23.9z M27.3,13.7h-5.5V9.4h5.5V13.7z"/>
	<path id="XMLID_2453_" class="st0" d="M16.1,15.4h-0.5h-4.3v10.8h9V15.4H16.1z M15.5,25.7h-3.6v-7.6h3.6V25.7z M19.5,25.7h-3.4
		v-7.6h3.4V25.7z"/>
	<rect id="XMLID_2457_" x="2.2" y="26.7" class="st0" width="27.5" height="1.2"/>
</g>
</svg>
