<?xml version="1.0" encoding="utf-8"?>
<!-- Generator: Adobe Illustrator 19.2.1, SVG Export Plug-In . SVG Version: 6.00 Build 0)  -->
<svg version="1.1" id="Layer_1" xmlns="http://www.w3.org/2000/svg" xmlns:xlink="http://www.w3.org/1999/xlink" x="0px" y="0px"
	 viewBox="0 0 32 32" style="enable-background:new 0 0 32 32;" xml:space="preserve">
<style type="text/css">
	.st0{fill:#0071CE;}
	.st1{fill:#346094;}
	.st2{fill:#346195;}
	.st3{fill:#BAC4D8;}
	.st4{fill:#FFFFFF;}
	.st5{fill:#003A5D;}
</style>
<g>
	<path class="st0" d="M1.9,5.2h27.9v22.5H1.9C1.9,27.7,1.9,5.2,1.9,5.2z"/>
	<path class="st1" d="M2.7,7.9H29v17.6H2.7C2.7,25.5,2.7,7.9,2.7,7.9z"/>
	<path class="st2" d="M1.4,27.4h29.1v1.3H1.4C1.4,28.6,1.4,27.4,1.4,27.4z"/>
	<path class="st3" d="M1.2,3.4l0.7,1.9h28.1l0.9-1.9H1.2z"/>
	<path class="st4" d="M3.7,14.9h5.8v9.4H3.7C3.7,24.3,3.7,14.9,3.7,14.9z"/>
	<path class="st4" d="M22.1,14.9H28v9.4h-5.8C22.1,24.3,22.1,14.9,22.1,14.9z"/>
	<path class="st4" d="M3.7,9h5.8v4.6H3.7C3.7,13.6,3.7,9,3.7,9z"/>
	<path class="st4" d="M10.9,9h9.6v4.6h-9.6C10.9,13.6,10.9,9,10.9,9z"/>
	<path class="st4" d="M22.1,9H28v4.6h-5.8C22.1,13.6,22.1,9,22.1,9z"/>
	<path class="st5" d="M10.6,14.9h5.5v12.8h-5.5C10.6,27.7,10.6,14.9,10.6,14.9z"/>
	<path class="st4" d="M11.5,18.3h3.9v8.3h-3.9C11.5,26.6,11.5,18.3,11.5,18.3z"/>
	<path class="st5" d="M15.5,14.9h5.2v12.8h-5.2V14.9z"/>
	<path class="st4" d="M16.3,18.3h3.6v8.3h-3.6C16.3,26.6,16.3,18.3,16.3,18.3z"/>
</g>
</svg>
