<?xml version="1.0" encoding="utf-8"?>
<!-- Generator: Adobe Illustrator 16.0.4, SVG Export Plug-In . SVG Version: 6.00 Build 0)  -->
<!DOCTYPE svg PUBLIC "-//W3C//DTD SVG 1.1//EN" "http://www.w3.org/Graphics/SVG/1.1/DTD/svg11.dtd">
<svg version="1.1" id="Layer_1" xmlns="http://www.w3.org/2000/svg" xmlns:xlink="http://www.w3.org/1999/xlink" x="0px" y="0px"
	 width="170.508px" height="80px" viewBox="0 0 170.508 80" enable-background="new 0 0 170.508 80" xml:space="preserve">
<g>
	<path fill="#0981C5" d="M3.982,5.715h41.789v41.792H3.982V5.715z M0,58.354h49.751V1.734H0V58.354z"/>
	<path fill="#231F20" d="M60.852,28.253h6.438L69.5,22.63h10.299l2.287,5.623h6.589L77.143,1.734H72.31L60.852,28.253z
		 M77.817,17.688h-6.482l3.222-8.237L77.817,17.688z"/>
	<rect x="90.699" y="-0.064" fill="#231F20" width="5.616" height="28.315"/>
	<rect x="100.438" y="-0.064" fill="#231F20" width="5.619" height="28.315"/>
	<g>
		<path fill="#231F20" d="M112.984,1.061c1.797,0,3.258,1.46,3.258,3.254c0,1.799-1.461,3.261-3.258,3.261
			c-1.801,0-3.26-1.462-3.26-3.261C109.725,2.521,111.184,1.061,112.984,1.061 M110.178,10.048h5.612v18.207h-5.612V10.048z"/>
		<path fill="#231F20" d="M133.132,22.219c-0.935,1.274-2.169,2.211-4.005,2.211c-2.173,0-3.787-1.385-4.233-3.521h13.036v-1.761
			c0-5.805-3.298-9.55-8.541-9.55c-5.622,0-10.116,3.745-10.116,9.55c0,5.811,4.494,9.55,10.116,9.55
			c2.921,0,5.878-1.311,7.682-3.595L133.132,22.219z M124.894,17.089c0.152-1.76,1.499-3.442,3.972-3.442
			c2.017,0,3.482,1.57,3.444,3.442H124.894z"/>
		<path fill="#231F20" d="M160.436-0.063h-5.622V12h-0.075c-1.269-1.764-3.439-2.401-5.762-2.401c-5.169,0-8.316,4.642-8.316,9.7
			c0,5.504,3.558,9.4,8.955,9.4c2.541,0,4.716-1.533,5.577-2.849h0.073v2.403h5.17V-0.063z M155.266,19.148
			c0,2.734-1.687,4.609-4.497,4.609c-2.806,0-4.491-1.875-4.491-4.609c0-2.732,1.686-4.606,4.491-4.606
			C153.579,14.542,155.266,16.416,155.266,19.148"/>
		<path fill="#231F20" d="M60.868,58.344h2.551V39.501h-2.551V58.344z M67.387,58.344h2.393v-6.495c0-2.929,1.519-4.209,3.515-4.209
			c1.518,0,2.876,0.882,2.876,3.253v7.451h2.39v-8.119c0-3.353-2.123-4.815-4.575-4.815c-1.942,0-3.541,0.932-4.152,2.258H69.78
			v-1.938h-2.393V58.344z M90.486,47.481c-0.904-1.485-2.631-2.072-4.31-2.072c-2.371,0-4.791,1.249-4.791,3.889
			c0,2.418,1.808,3.081,3.857,3.59c1.041,0.239,3.039,0.505,3.039,1.942c0,1.094-1.334,1.6-2.56,1.6
			c-1.383,0-2.289-0.723-3.06-1.492l-1.808,1.492c1.25,1.698,2.793,2.231,4.868,2.231c2.506,0,5.109-1.112,5.109-3.964
			c0-2.367-1.595-3.164-3.669-3.675c-1.067-0.238-3.225-0.448-3.225-1.971c0-0.903,0.985-1.412,2.106-1.412
			c1.198,0,2.024,0.561,2.583,1.253L90.486,47.481z M104.645,45.729h-2.391v6.493c0,2.928-1.519,4.208-3.517,4.208
			c-1.516,0-2.875-0.878-2.875-3.248v-7.453h-2.394v8.12c0,3.351,2.127,4.812,4.577,4.812c1.942,0,3.54-0.93,4.153-2.26h0.055v1.942
			h2.391V45.729z M108.001,58.344h2.391v-6.336c0-2.769,1.278-4.046,3.622-4.046c0.372,0,0.77,0.079,1.17,0.187l0.105-2.58
			c-0.319-0.105-0.689-0.159-1.063-0.159c-1.569,0-3.164,0.934-3.776,2.262h-0.056l-0.002-1.942h-2.391V58.344z M119.068,48.761
			c0.879-0.664,1.757-1.438,3.595-1.438c2.052,0,3.011,1.36,3.011,2.666v0.532h-1.757c-3.837,0-6.949,1.115-6.949,4.365
			c0,2.445,2.022,3.775,4.364,3.775c1.921,0,3.356-0.608,4.422-2.231h0.051c0,0.639,0.03,1.273,0.08,1.914h2.129
			c-0.084-0.665-0.111-1.408-0.111-2.288v-6.439c0-2.187-1.538-4.207-5.264-4.207c-1.755,0-3.672,0.61-5.004,1.859L119.068,48.761z
			 M125.674,52.271v0.802c0,1.704-0.933,3.675-3.596,3.675c-1.65,0-2.715-0.611-2.715-2.053c0-2.023,2.768-2.424,5.03-2.424H125.674
			z M131.128,58.344h2.394v-6.495c0-2.929,1.516-4.209,3.517-4.209c1.515,0,2.874,0.882,2.874,3.253v7.451h2.394v-8.119
			c0-3.353-2.128-4.815-4.577-4.815c-1.945,0-3.54,0.932-4.154,2.258h-0.053v-1.938h-2.394V58.344z M156.487,47.433
			c-1.249-1.359-3.005-1.993-4.841-1.993c-3.941,0-6.6,2.761-6.6,6.653c0,3.885,2.714,6.568,6.6,6.568
			c1.836,0,3.538-0.559,4.789-1.942l-1.704-1.7c-0.799,0.932-1.729,1.411-3.06,1.411c-2.475,0-4.073-1.917-4.073-4.287
			c0-2.371,1.333-4.476,3.938-4.476c1.332,0,2.264,0.481,3.14,1.413L156.487,47.433z M170.141,52.913v-0.851
			c0-3.247-1.698-6.653-6.144-6.653c-3.782,0-6.52,2.846-6.52,6.627c0,3.754,2.498,6.625,6.491,6.625
			c2.424,0,4.261-0.849,5.588-2.579l-1.809-1.387c-0.93,1.146-1.994,1.892-3.46,1.892c-2.209,0-4.261-1.462-4.261-3.674H170.141z
			 M160.027,50.999c0-1.676,1.546-3.677,3.916-3.677c2.424,0,3.595,1.57,3.646,3.677H160.027z"/>
		<path fill="#231F20" d="M1.605,72.836c0.363-0.273,0.729-0.598,1.492-0.598c0.852,0,1.25,0.564,1.25,1.107v0.222H3.618
			c-1.594,0-2.885,0.461-2.885,1.812c0,1.016,0.838,1.567,1.811,1.567c0.797,0,1.395-0.251,1.837-0.926h0.02
			c0,0.268,0.011,0.531,0.035,0.797h0.882c-0.034-0.277-0.046-0.588-0.046-0.952v-2.672c0-0.908-0.637-1.748-2.185-1.748
			c-0.732,0-1.526,0.252-2.08,0.771L1.605,72.836z M4.347,74.295v0.331c0,0.711-0.387,1.526-1.493,1.526
			c-0.687,0-1.129-0.251-1.129-0.848c0-0.845,1.152-1.01,2.092-1.01H4.347z M10.052,76.817h1.061v-6.436h0.022l4.356,6.436h1.349
			v-7.828h-1.06v6.434h-0.022l-4.312-6.434h-1.394V76.817z M18.774,72.836c0.365-0.273,0.73-0.598,1.493-0.598
			c0.853,0,1.252,0.564,1.252,1.107v0.222h-0.732c-1.592,0-2.884,0.461-2.884,1.812c0,1.016,0.839,1.567,1.813,1.567
			c0.795,0,1.394-0.251,1.836-0.926h0.022c0,0.268,0.01,0.531,0.031,0.797h0.884c-0.032-0.277-0.045-0.588-0.045-0.952v-2.672
			c0-0.908-0.638-1.748-2.187-1.748c-0.729,0-1.526,0.252-2.079,0.771L18.774,72.836z M21.52,74.295v0.331
			c0,0.711-0.388,1.526-1.496,1.526c-0.685,0-1.128-0.251-1.128-0.848c0-0.845,1.15-1.01,2.092-1.01H21.52z M26.703,71.577h-1.427
			v-1.472h-0.992v1.472h-1.15v0.862h1.15v2.729c0,0.845,0.022,1.777,1.557,1.777c0.199,0,0.662-0.043,0.896-0.172v-0.906
			c-0.201,0.119-0.476,0.152-0.708,0.152c-0.752,0-0.752-0.618-0.752-1.204v-2.377h1.427V71.577z M28.064,76.817h0.994v-5.24h-0.994
			V76.817z M27.831,69.696c0,0.4,0.33,0.729,0.732,0.729c0.395,0,0.727-0.329,0.727-0.729c0-0.397-0.332-0.729-0.727-0.729
			C28.161,68.967,27.831,69.299,27.831,69.696 M31.447,74.195c0-1.062,0.663-1.822,1.726-1.822c1.061,0,1.725,0.761,1.725,1.822
			c0,1.064-0.664,1.825-1.725,1.825C32.11,76.021,31.447,75.26,31.447,74.195 M30.387,74.195c0,1.527,1.227,2.751,2.786,2.751
			s2.786-1.224,2.786-2.751c0-1.526-1.227-2.75-2.786-2.75S30.387,72.669,30.387,74.195 M37.208,76.817h0.994v-2.701
			c0-1.216,0.631-1.743,1.459-1.743c0.631,0,1.195,0.362,1.195,1.345v3.1h0.994v-3.373c0-1.395-0.886-1.999-1.901-1.999
			c-0.811,0-1.472,0.389-1.726,0.936h-0.021v-0.804h-0.994V76.817z M44.45,76.817h1.071l1.251-3.917h0.022l1.383,3.917h1.004
			l1.692-5.24h-1.049l-1.127,3.914h-0.022l-1.328-3.914h-1.05l-1.249,3.914h-0.023l-1.184-3.914h-1.117L44.45,76.817z
			 M51.825,76.817h0.993v-5.24h-0.993V76.817z M51.592,69.696c0,0.4,0.331,0.729,0.729,0.729c0.397,0,0.729-0.329,0.729-0.729
			c0-0.397-0.332-0.729-0.729-0.729C51.923,68.967,51.592,69.299,51.592,69.696 M59.653,68.455h-0.995v3.875h-0.022
			c-0.354-0.541-1.073-0.885-1.825-0.885c-1.614,0-2.663,1.179-2.663,2.75c0,1.551,1.037,2.751,2.663,2.751
			c0.707,0,1.436-0.319,1.825-0.879h0.022v0.75h0.995V68.455z M56.933,76.021c-1.062,0-1.726-0.761-1.726-1.825
			c0-1.062,0.664-1.822,1.726-1.822c1.06,0,1.726,0.761,1.726,1.822C58.658,75.26,57.993,76.021,56.933,76.021 M66.107,74.56v-0.354
			c0-1.347-0.705-2.761-2.553-2.761c-1.571,0-2.708,1.179-2.708,2.75c0,1.559,1.04,2.751,2.699,2.751
			c1.006,0,1.769-0.351,2.321-1.069l-0.75-0.572c-0.388,0.473-0.831,0.78-1.437,0.78c-0.92,0-1.771-0.603-1.771-1.525H66.107z
			 M61.907,73.766c0-0.696,0.642-1.527,1.626-1.527c1.007,0,1.495,0.655,1.517,1.527H61.907z M70.632,76.817h1.06v-7.828h-1.06
			V76.817z M73.451,76.817h0.994v-2.701c0-1.216,0.631-1.743,1.461-1.743c0.63,0,1.193,0.362,1.193,1.345v3.1h0.994v-3.373
			c0-1.395-0.882-1.999-1.899-1.999c-0.809,0-1.473,0.389-1.728,0.936h-0.022v-0.804h-0.994V76.817z M83.159,72.307
			c-0.375-0.622-1.094-0.861-1.793-0.861c-0.983,0-1.989,0.517-1.989,1.614c0,1.004,0.752,1.282,1.603,1.492
			c0.434,0.098,1.263,0.21,1.263,0.806c0,0.454-0.554,0.663-1.062,0.663c-0.577,0-0.953-0.298-1.271-0.618l-0.751,0.618
			c0.519,0.709,1.158,0.926,2.023,0.926c1.039,0,2.122-0.46,2.122-1.642c0-0.986-0.663-1.319-1.526-1.527
			c-0.443-0.101-1.337-0.19-1.337-0.82c0-0.377,0.406-0.584,0.871-0.584c0.5,0,0.842,0.229,1.074,0.521L83.159,72.307z
			 M89.149,71.577h-0.992v2.699c0,1.215-0.63,1.744-1.459,1.744c-0.631,0-1.196-0.365-1.196-1.348v-3.096h-0.994v3.373
			c0,1.393,0.884,1.996,1.901,1.996c0.807,0,1.472-0.384,1.727-0.933h0.021v0.804h0.992V71.577z M90.653,76.817h0.994v-2.634
			c0-1.15,0.532-1.68,1.504-1.68c0.155,0,0.323,0.033,0.489,0.076l0.044-1.07c-0.135-0.044-0.287-0.064-0.442-0.064
			c-0.652,0-1.313,0.389-1.568,0.939h-0.026v-0.808h-0.994V76.817z M95.364,72.836c0.365-0.273,0.729-0.598,1.493-0.598
			c0.853,0,1.251,0.564,1.251,1.107v0.222h-0.731c-1.592,0-2.882,0.461-2.882,1.812c0,1.016,0.836,1.567,1.81,1.567
			c0.797,0,1.396-0.251,1.837-0.926h0.022c0,0.268,0.009,0.531,0.032,0.797h0.883c-0.033-0.277-0.046-0.588-0.046-0.952v-2.672
			c0-0.908-0.637-1.748-2.187-1.748c-0.73,0-1.526,0.252-2.078,0.771L95.364,72.836z M98.108,74.295v0.331
			c0,0.711-0.386,1.526-1.495,1.526c-0.682,0-1.128-0.251-1.128-0.848c0-0.845,1.151-1.01,2.091-1.01H98.108z M100.485,76.817h0.993
			v-2.701c0-1.216,0.632-1.743,1.462-1.743c0.627,0,1.191,0.362,1.191,1.345v3.1h0.994v-3.373c0-1.395-0.885-1.999-1.9-1.999
			c-0.808,0-1.47,0.389-1.724,0.936h-0.023v-0.804h-0.993V76.817z M111.129,72.286c-0.52-0.565-1.244-0.831-2.01-0.831
			c-1.638,0-2.741,1.147-2.741,2.763c0,1.617,1.128,2.729,2.741,2.729c0.766,0,1.469-0.229,1.988-0.807l-0.708-0.705
			c-0.331,0.389-0.716,0.586-1.271,0.586c-1.026,0-1.69-0.796-1.69-1.778c0-0.984,0.554-1.861,1.636-1.861
			c0.555,0,0.939,0.199,1.307,0.588L111.129,72.286z M116.913,74.56v-0.354c0-1.347-0.707-2.761-2.552-2.761
			c-1.571,0-2.708,1.179-2.708,2.75c0,1.559,1.034,2.751,2.696,2.751c1.008,0,1.77-0.351,2.322-1.069l-0.749-0.572
			c-0.392,0.473-0.833,0.78-1.441,0.78c-0.916,0-1.769-0.603-1.769-1.525H116.913z M112.713,73.766c0-0.696,0.641-1.527,1.627-1.527
			c1.005,0,1.49,0.655,1.515,1.527H112.713z M119.013,72.205h0.503v-1.12h0.367l0.686,1.12h0.527l-0.716-1.159
			c0.376-0.048,0.656-0.274,0.656-0.753c0-0.527-0.308-0.825-0.965-0.825h-1.059V72.205z M119.516,69.892h0.367
			c0.31-0.005,0.652,0.015,0.652,0.382c0,0.366-0.343,0.384-0.652,0.384h-0.367V69.892z M117.539,70.854
			c0,1.32,1.075,2.395,2.396,2.395c1.321,0,2.398-1.074,2.398-2.395s-1.077-2.403-2.398-2.403
			C118.614,68.451,117.539,69.534,117.539,70.854 M117.962,70.854c0-1.089,0.885-1.974,1.973-1.974c1.09,0,1.974,0.885,1.974,1.974
			c0,1.087-0.884,1.972-1.974,1.972C118.847,72.826,117.962,71.941,117.962,70.854 M130.396,72.286
			c-0.517-0.565-1.248-0.831-2.012-0.831c-1.636,0-2.741,1.147-2.741,2.763c0,1.617,1.128,2.729,2.741,2.729
			c0.764,0,1.471-0.229,1.99-0.807l-0.708-0.705c-0.333,0.389-0.717,0.586-1.272,0.586c-1.025,0-1.69-0.796-1.69-1.778
			c0-0.984,0.553-1.861,1.636-1.861c0.556,0,0.943,0.199,1.308,0.588L130.396,72.286z M132.031,74.195
			c0-1.062,0.667-1.822,1.727-1.822c1.062,0,1.728,0.761,1.728,1.822c0,1.064-0.665,1.825-1.728,1.825
			C132.698,76.021,132.031,75.26,132.031,74.195 M130.973,74.195c0,1.527,1.225,2.751,2.785,2.751c1.56,0,2.786-1.224,2.786-2.751
			c0-1.526-1.227-2.75-2.786-2.75C132.197,71.445,130.973,72.669,130.973,74.195 M137.795,76.817h0.995v-2.724
			c0-1.182,0.64-1.721,1.358-1.721c0.963,0,1.108,0.705,1.108,1.701v2.743h0.994v-2.863c0-0.931,0.377-1.581,1.339-1.581
			c0.959,0,1.128,0.729,1.128,1.525v2.919h0.989v-3.052c0-1.173-0.374-2.32-1.988-2.32c-0.629,0-1.313,0.332-1.659,0.971
			c-0.328-0.639-0.858-0.971-1.637-0.971c-0.938,0-1.58,0.639-1.676,0.948h-0.024v-0.816h-0.928V76.817z M147.217,79.936h0.992
			v-3.868h0.021c0.353,0.54,1.072,0.879,1.823,0.879c1.618,0,2.665-1.179,2.665-2.751c0-1.548-1.037-2.75-2.665-2.75
			c-0.706,0-1.436,0.32-1.823,0.885h-0.021v-0.753h-0.992V79.936z M149.935,72.373c1.061,0,1.726,0.761,1.726,1.822
			c0,1.064-0.665,1.825-1.726,1.825c-1.064,0-1.726-0.761-1.726-1.825C148.209,73.134,148.87,72.373,149.935,72.373 M154.59,72.836
			c0.362-0.273,0.729-0.598,1.493-0.598c0.85,0,1.249,0.564,1.249,1.107v0.222h-0.729c-1.594,0-2.888,0.461-2.888,1.812
			c0,1.016,0.84,1.567,1.813,1.567c0.795,0,1.393-0.251,1.836-0.926h0.023c0,0.268,0.011,0.531,0.029,0.797h0.885
			c-0.034-0.277-0.044-0.588-0.044-0.952v-2.672c0-0.908-0.639-1.748-2.189-1.748c-0.727,0-1.524,0.252-2.077,0.771L154.59,72.836z
			 M157.332,74.295v0.331c0,0.711-0.387,1.526-1.493,1.526c-0.688,0-1.127-0.251-1.127-0.848c0-0.845,1.148-1.01,2.088-1.01H157.332
			z M159.709,76.817h0.993v-2.701c0-1.216,0.633-1.743,1.462-1.743c0.63,0,1.191,0.362,1.191,1.345v3.1h0.997v-3.373
			c0-1.395-0.884-1.999-1.901-1.999c-0.81,0-1.472,0.389-1.725,0.936h-0.024v-0.804h-0.993V76.817z M167.404,76.851l-0.32,0.829
			c-0.2,0.518-0.388,0.863-1.018,0.863c-0.2,0-0.409-0.045-0.597-0.119l-0.121,0.903c0.276,0.107,0.584,0.142,0.883,0.142
			c1.096,0,1.438-0.614,1.79-1.523l2.486-6.368h-1.07l-1.481,4.091h-0.021l-1.56-4.091h-1.149L167.404,76.851z"/>
	</g>
</g>
</svg>
