<?xml version="1.0" encoding="utf-8"?>
<!-- Generator: Adobe Illustrator 19.0.0, SVG Export Plug-In . SVG Version: 6.00 Build 0)  -->
<svg version="1.1" id="Layer_1" xmlns="http://www.w3.org/2000/svg" xmlns:xlink="http://www.w3.org/1999/xlink" x="0px" y="0px"
	 viewBox="0 0 60 60" style="enable-background:new 0 0 60 60;" xml:space="preserve">
<style type="text/css">
	.st0{fill:#FFFFFF;}
</style>
<g id="XMLID_2_">
	<path id="XMLID_25_" class="st0" d="M20.8,49.7c0.5,0,0.8,0.4,0.8,0.8c0,0.4-0.4,0.8-0.8,0.8c-0.5,0-0.8-0.4-0.8-0.8
		C19.9,50.1,20.3,49.7,20.8,49.7"/>
	<path id="XMLID_24_" class="st0" d="M42,49.7c0.5,0,0.8,0.4,0.8,0.8c0,0.4-0.4,0.8-0.8,0.8c-0.5,0-0.8-0.4-0.8-0.8
		C41.1,50.1,41.5,49.7,42,49.7"/>
	<path class="st0" d="M15,53.9v3h-1.3v-0.5C13.4,56.7,13,57,12.4,57c-1,0-1.8-0.6-1.8-1.5c0-1.4,1.5-1.8,3-1.8h0.2
		c0-0.4-0.2-0.8-1-0.8c-0.5,0-1,0.2-1.3,0.5l-0.8-0.8c0.5-0.5,1.3-0.8,2.1-0.8c0.8,0,1.3,0.1,1.7,0.5C15,52.7,15,53.5,15,53.9
		 M13.7,54.7h-0.1c-0.2,0-0.7,0-1.1,0.1c-0.3,0.1-0.5,0.3-0.5,0.5c0,0.4,0.4,0.5,0.7,0.5c0.7,0,1.1-0.4,1.1-1V54.7z"/>
	<path id="XMLID_21_" class="st0" d="M17.9,51.9v-1.6h-1.4v1.6h-1v1.2h1v2.1c0,0.7,0.1,1.1,0.4,1.4c0.3,0.3,0.7,0.4,1.2,0.4
		c0.4,0,0.7-0.1,1-0.2v-1.1c-0.2,0.1-0.4,0.1-0.7,0.1c-0.4,0-0.5-0.2-0.5-0.6v-2h1.3v-1.2H17.9z"/>
	<path class="st0" d="M54.5,54.5v0.4H51c0,0.5,0.6,0.9,1.2,1c0.6,0,1-0.2,1.3-0.6l0.9,0.7c-0.5,0.7-1.2,1.1-2.1,1.1
		c-1.5,0-2.7-0.9-2.7-2.6c0-1.3,0.8-2.6,2.5-2.6C53.8,51.8,54.5,53.2,54.5,54.5 M53.1,53.8c-0.1-0.5-0.4-0.9-1-0.9
		c-0.6,0-1,0.4-1.1,0.9H53.1z"/>
	<polygon id="XMLID_18_" class="st0" points="8.2,49.7 8.2,54.6 5.2,49.7 3.3,49.7 3.3,56.9 4.8,56.9 4.8,51.8 7.9,56.9 9.7,56.9 
		9.7,49.7 	"/>
	<polygon id="XMLID_17_" class="st0" points="39.3,51.9 38.5,55 37.7,51.9 36.3,51.9 35.5,55 34.7,51.9 33.2,51.9 34.8,56.9 
		36.2,56.9 37,53.8 37.9,56.9 39.2,56.9 40.8,51.9 	"/>
	<rect id="XMLID_16_" x="20.1" y="51.9" class="st0" width="1.4" height="5"/>
	<rect id="XMLID_15_" x="41.3" y="51.9" class="st0" width="1.4" height="5"/>
	<path id="XMLID_14_" class="st0" d="M32.3,52.3c-0.3-0.3-0.7-0.5-1.2-0.5c-0.5,0-1.2,0.3-1.5,0.7v-0.5h-1.3v5h1.4v-2.7
		c0-0.4,0.1-0.6,0.3-0.8c0.1-0.2,0.3-0.3,0.6-0.3c0.3,0,0.5,0.1,0.6,0.3c0.2,0.2,0.2,0.5,0.2,1v2.5h1.4v-3.1
		C32.8,53.2,32.7,52.7,32.3,52.3"/>
	<path class="st0" d="M48.7,49.7v7.2h-1.3v-0.6c-0.3,0.4-0.8,0.7-1.5,0.7c-0.7,0-1.3-0.2-1.7-0.7c-0.5-0.5-0.7-1.2-0.7-1.9
		c0-1.5,1-2.6,2.4-2.6c0.6,0,1.1,0.2,1.5,0.6l0-2.7H48.7z M47.4,54.4c0-0.7-0.4-1.3-1.2-1.3c-0.8,0-1.2,0.7-1.2,1.3
		c0,0.7,0.4,1.3,1.2,1.3C46.9,55.7,47.4,55.1,47.4,54.4"/>
	<path class="st0" d="M27.5,54.4c0,1.5-1.1,2.6-2.6,2.6c-1.5,0-2.6-1.1-2.6-2.6c0-1.5,1.1-2.6,2.6-2.6
		C26.4,51.8,27.5,52.9,27.5,54.4 M24.9,53.1c-0.8,0-1.2,0.7-1.2,1.3c0,0.7,0.4,1.3,1.2,1.3c0.8,0,1.2-0.7,1.2-1.3
		C26.1,53.7,25.7,53.1,24.9,53.1"/>
	<path class="st0" d="M55.2,51.5h0.2v-0.5h0.2l0.3,0.5h0.2l-0.3-0.5c0.2,0,0.3-0.1,0.3-0.4c0-0.3-0.1-0.4-0.4-0.4h-0.5V51.5z
		 M55.4,50.4h0.2c0.1,0,0.3,0,0.3,0.2c0,0.2-0.2,0.2-0.3,0.2h-0.2V50.4z M54.5,50.8c0,0.6,0.5,1.1,1.1,1.1c0.6,0,1.1-0.5,1.1-1.1
		c0-0.6-0.5-1.1-1.1-1.1C55,49.7,54.5,50.2,54.5,50.8 M54.7,50.8c0-0.5,0.4-0.9,0.9-0.9c0.5,0,0.9,0.4,0.9,0.9
		c0,0.5-0.4,0.9-0.9,0.9C55.1,51.7,54.7,51.3,54.7,50.8"/>
	<g id="XMLID_1_">
		<path id="XMLID_82_" class="st0" d="M37.2,12.5v16.7l-2.1-2v6.4c0,1.5-0.1,2.5-0.8,3.3l0,0c0,0-0.1,0.1-0.1,0.1l2.4,2.2h8.1V12.5
			H37.2z"/>
		<path id="XMLID_81_" class="st0" d="M19.4,23.1c0,0,3.3,3.1,3.6,3.4c-0.3-1.2-0.5-2.7,0.1-3.7l0.3-0.5c-0.3-1.8-0.3-3.7,0.9-5
			l0.3-0.3l-4.5-4.4H12v26.8h7.4L19.4,23.1L19.4,23.1z"/>
		<path id="XMLID_78_" class="st0" d="M36.4,41.3c1.8,0.1,3,0.3,4.3,0.4c0.5,0.1,0.7,0.6,0.7,0.9c-0.6-0.1-1.6-0.2-1.6-0.2L39.8,43
			c0,0,0.8-0.2,1.7-0.2c0,0,1.8,0,1.7,1.2c-0.5-0.3-1.5-0.2-1.8-0.2c-0.9,0.1-1.8,0.6-2.8,1.1c-0.9,0.5-1.9,1-3.1,1.4
			c0.5-0.5,1.9-2,1.9-2l-1.8-0.6l1.5-1.3l-2.2-1.2C35.3,41.2,35.9,41.3,36.4,41.3 M33.8,36.5c-0.8,1-1.9,2.3-1.7,3.3v0
			c0.2,0.8,1.3,1.3,1.3,1.3l2.5,1.4l-1.6,1.4l1.9,0.6c0,0-1.8,1.8-2,2c-0.5,0.1-1.1,0.1-1.6,0.1c-4.1,0-9.9-2.4-11.3-2.5
			c-1.7,0-3.9,1-3.9,1l1.1-1.2c0,0-1.5,0.3-2.9,0.2l2-1.4c-1.8-0.1-3.3-0.6-4-1.1c0,0,3.3-0.3,7.7-0.2c1.8,0,4.8,0.2,4.8,0.2
			c-1.5-0.6-2.9-1.5-3.5-2.9l2.9,0.4c-1.2-0.7-2.9-2.6-3.3-4l3.2,1.1c-0.6-0.6-2.5-2.5-2.9-4.6l2.5,1.6c-0.7-0.7-2.4-4.2-2.1-5.2
			l2.3,1.6c-1.1-1.4-2.4-5.1-1.5-6.5c0.7,2.8,2.3,3.8,2.3,3.8c-1-1.5-3.3-6.9-1.1-9.2c0.6,5.3,2.8,7.1,2.8,7.1c-1.9-3-4-12.2,0-14
			c-0.8,5.9,1.1,9.1,1.1,9.1c-1.2-5.4-1.2-13.1,2.9-13.8c-2,5.8-0.6,10.3-0.6,10.3C30.8,2.8,35.2,3,35.2,3s-0.7,3.9-0.7,10.7v19.9
			C34.5,34.9,34.3,35.8,33.8,36.5"/>
	</g>
</g>
</svg>
