<?xml version="1.0" encoding="utf-8"?>
<!-- Generator: Adobe Illustrator 19.0.0, SVG Export Plug-In . SVG Version: 6.00 Build 0)  -->
<svg version="1.1" id="Layer_1" xmlns="http://www.w3.org/2000/svg" xmlns:xlink="http://www.w3.org/1999/xlink" x="0px" y="0px"
	 viewBox="0 0 60 60" style="enable-background:new 0 0 60 60;" xml:space="preserve">
<style type="text/css">
	.st0{fill:#1658A5;}
	.st1{fill:#FFFFFF;}
</style>
<path id="XMLID_1_" d="M21.8,49.2c0.5,0,0.8,0.4,0.8,0.8c0,0.4-0.4,0.8-0.8,0.8c-0.5,0-0.8-0.4-0.8-0.8
	C20.9,49.6,21.3,49.2,21.8,49.2 M43,49.2c-0.5,0-0.8,0.4-0.8,0.8c0,0.4,0.4,0.8,0.8,0.8c0.5,0,0.8-0.4,0.8-0.8
	C43.8,49.6,43.4,49.2,43,49.2 M16,53.4c0-0.4-0.1-1.2-0.5-1.6c-0.5-0.4-0.9-0.5-1.7-0.5c-0.8,0-1.6,0.3-2.1,0.8l0.8,0.8
	c0.3-0.3,0.8-0.5,1.3-0.5c0.8,0,1,0.4,1,0.8h-0.2c-1.5,0-3,0.3-3,1.8c0,0.9,0.8,1.6,1.8,1.5c0.6,0,1.1-0.3,1.4-0.6v0.5H16V53.4
	 M14.7,54.4c0,0.6-0.4,1-1.1,1c-0.3,0-0.7-0.2-0.7-0.5c0-0.3,0.2-0.4,0.5-0.5c0.4-0.1,0.9-0.1,1.1-0.1h0.1V54.4z M18.9,51.4v-1.6
	h-1.4v1.6h-1v1.2h1v2.1c0,0.7,0.1,1.1,0.4,1.4c0.3,0.3,0.7,0.4,1.2,0.4c0.4,0,0.7-0.1,1-0.2v-1.1c-0.2,0.1-0.4,0.1-0.7,0.1
	c-0.4,0-0.5-0.2-0.5-0.6v-2h1.3v-1.2H18.9z M55.5,54c0-1.3-0.7-2.7-2.5-2.7c-1.7,0-2.5,1.3-2.5,2.6c0,1.7,1.2,2.6,2.7,2.6
	c0.9,0,1.6-0.4,2.1-1.1l-0.9-0.7c-0.3,0.4-0.7,0.6-1.3,0.6c-0.7,0-1.2-0.5-1.2-1h3.6V54 M52,53.4c0.1-0.5,0.5-0.9,1.1-0.9
	c0.7,0,1,0.4,1,0.9H52z M9.2,49.2v4.9l-3-4.9H4.3v7.2h1.5v-5.1l3.1,5.1h1.8l0-7.2H9.2z M40.3,51.4l-0.8,3.1l-0.8-3.1h-1.5l-0.8,3.1
	l-0.8-3.1h-1.5l1.6,5h1.4l0.8-3.1l0.9,3.1h1.3l1.6-5H40.3z M22.5,51.4h-1.4v5h1.4V51.4z M43.7,51.4h-1.4v5h1.4V51.4z M33.3,51.8
	c-0.3-0.3-0.7-0.5-1.2-0.5c-0.5,0-1.2,0.3-1.5,0.7v-0.5h-1.3v5h1.4v-2.7c0-0.4,0.1-0.6,0.3-0.8c0.1-0.2,0.3-0.3,0.6-0.3
	c0.3,0,0.5,0.1,0.6,0.3c0.2,0.2,0.2,0.5,0.2,1v2.5h1.4v-3.1C33.8,52.7,33.7,52.2,33.3,51.8 M48.3,49.2l0,2.7
	c-0.4-0.4-0.9-0.6-1.5-0.6c-1.4,0-2.4,1.1-2.4,2.6c0,0.8,0.3,1.5,0.7,1.9c0.4,0.4,1,0.7,1.7,0.7c0.7,0,1.2-0.3,1.5-0.7v0.6h1.3v-7.2
	H48.3z M48.4,53.9c0,0.7-0.4,1.3-1.2,1.3c-0.8,0-1.2-0.7-1.2-1.3c0-0.7,0.4-1.3,1.2-1.3C47.9,52.6,48.4,53.3,48.4,53.9 M28.5,53.9
	c0-1.5-1.1-2.6-2.6-2.6c-1.5,0-2.6,1.1-2.6,2.6c0,1.5,1.1,2.6,2.6,2.6C27.4,56.5,28.5,55.4,28.5,53.9 M25.9,52.6
	c0.8,0,1.2,0.7,1.2,1.3c0,0.7-0.4,1.3-1.2,1.3c-0.8,0-1.2-0.7-1.2-1.3C24.7,53.3,25.1,52.6,25.9,52.6 M56.2,49.7h0.5
	c0.3,0,0.4,0.1,0.4,0.4c0,0.2-0.1,0.3-0.3,0.4l0.3,0.5h-0.2l-0.3-0.5h-0.2V51h-0.2V49.7z M56.4,50.2h0.2c0.1,0,0.3,0,0.3-0.2
	c0-0.2-0.2-0.2-0.3-0.2h-0.2V50.2z M55.5,50.3c0-0.6,0.5-1.1,1.1-1.1c0.6,0,1.1,0.5,1.1,1.1c0,0.6-0.5,1.1-1.1,1.1
	C56,51.5,55.5,51,55.5,50.3 M55.7,50.3c0,0.5,0.4,0.9,0.9,0.9c0.5,0,0.9-0.4,0.9-0.9c0-0.5-0.4-0.9-0.9-0.9
	C56.1,49.4,55.7,49.8,55.7,50.3"/>
<path id="XMLID_84_" class="st0" d="M37.6,38.7h8V12.2h-7.4v16.5l-2.1-2.1V13.4C36.1,5.7,37,2,37,2c-2.5,0-3.8,2.4-4.1,3.1
	c-1.4,0.2-2.5,1-3.3,2.5c-0.4,0.9-0.6,1.7-0.7,2.2c-2.9,0.7-3.2,5.9-3,6.9l-4.6-4.5h-8v26.5h7.3v-16l3.6,3.4c0.3,1,0.6,1.4,0.6,1.4
	l-1.4-1.2c-0.3,2.6,0.5,3.9,1.2,4.9l-1.7-1.4c-0.1,2.6,1.1,4.2,1.9,4.8l-2.2-1.1c-0.2,1.5,1.4,3.8,2.3,4.2L23,37.4
	c0.4,2.1,1.9,2.9,1.9,2.9s-3.2-0.1-4.7-0.1c-4.1,0-6.8,0.4-6.8,0.4s1.8,1.8,4.1,1.9l-2.1,1.3c1.5,0.5,2.9,0.3,2.9,0.3l-1.2,1.4
	c0,0,3.8-1.5,5.4-1.3c1.3,0.1,7.2,2.4,11.2,2.4c2.7,0,4.6-1,6.2-1.8c0.9-0.5,1.8-0.9,2.6-1c1.4-0.2,2.1,0.3,2.1,0.3
	c0.1-0.6,0.6-2.1-1.7-2.5c-0.1-0.4-0.5-1-1.1-1.1c-1.3-0.2-6.6-0.6-6.7-0.6c-0.5,0-2-0.3-0.6-2.3c0.1-0.2,0.8-1,0.8-1L37.6,38.7z
	 M37.4,40.6c1.7,0.1,3,0.2,4.2,0.4c0.5,0.1,0.7,0.6,0.7,0.9c-0.6-0.1-1.5-0.2-1.5-0.2l-0.1,0.6c0,0,0.8-0.2,1.7-0.2
	c0,0,1.8,0,1.7,1.2c-0.5-0.3-1.5-0.2-1.8-0.2c-0.9,0.1-1.8,0.6-2.8,1.1c-0.9,0.5-1.9,1-3.1,1.4c0.5-0.5,1.8-2,1.8-2L36.4,43l1.4-1.3
	l-2.2-1.2C36.4,40.6,36.9,40.6,37.4,40.6 M34.8,35.9c-0.8,0.9-1.9,2.3-1.6,3.3l0,0c0.2,0.8,1.3,1.3,1.3,1.3l2.5,1.3l-1.6,1.4
	l1.9,0.6c0,0-1.8,1.8-2,2c-0.5,0.1-1,0.1-1.6,0.1c-4.1,0-9.8-2.4-11.2-2.4c-1.7,0-3.8,1-3.8,1l1.1-1.2c0,0-1.5,0.3-2.9,0.2l2-1.4
	c-1.7-0.1-3.3-0.6-4-1.1c0,0,3.2-0.3,7.6-0.2c1.8,0,4.8,0.2,4.8,0.2c-1.5-0.6-2.9-1.5-3.5-2.9l2.8,0.4c-1.2-0.7-2.9-2.5-3.2-3.9
	l3.1,1.1c-0.6-0.6-2.5-2.4-2.9-4.5l2.5,1.6c-0.7-0.7-2.4-4.1-2.1-5.2l2.3,1.6c-1.1-1.4-2.4-5-1.5-6.4c0.7,2.7,2.3,3.7,2.3,3.7
	c-1-1.5-3.3-6.8-1.1-9.1c0.6,5.3,2.8,7.1,2.8,7.1c-1.9-3-4-12,0-13.9c-0.8,5.8,1.1,9,1.1,9c-1.2-5.4-1.1-13,2.9-13.7
	c-2,5.7-0.6,10.2-0.6,10.2c-0.3-13.4,4-13.2,4-13.2s-0.7,3.8-0.7,10.6V33C35.5,34.4,35.4,35.2,34.8,35.9"/>
<path id="XMLID_4_" class="st1" d="M37.4,40.6c1.7,0.1,3,0.2,4.2,0.4c0.5,0.1,0.7,0.6,0.7,0.9c-0.6-0.1-1.5-0.2-1.5-0.2l-0.1,0.6
	c0,0,0.8-0.2,1.7-0.2c0,0,1.8,0,1.7,1.2c-0.5-0.3-1.5-0.2-1.8-0.2c-0.9,0.1-1.8,0.6-2.8,1.1c-0.9,0.5-1.9,1-3.1,1.4
	c0.5-0.5,1.8-2,1.8-2L36.4,43l1.4-1.3l-2.2-1.2C36.4,40.6,36.9,40.6,37.4,40.6 M34.8,35.9c-0.8,0.9-1.9,2.3-1.6,3.3l0,0
	c0.2,0.8,1.3,1.3,1.3,1.3l2.5,1.3l-1.6,1.4l1.9,0.6c0,0-1.8,1.8-2,2c-0.5,0.1-1,0.1-1.6,0.1c-4.1,0-9.8-2.4-11.2-2.4
	c-1.7,0-3.8,1-3.8,1l1.1-1.2c0,0-1.5,0.3-2.9,0.2l2-1.4c-1.7-0.1-3.3-0.6-4-1.1c0,0,3.2-0.3,7.6-0.2c1.8,0,4.8,0.2,4.8,0.2
	c-1.5-0.6-2.9-1.5-3.5-2.9l2.8,0.4c-1.2-0.7-2.9-2.5-3.2-3.9l3.1,1.1c-0.6-0.6-2.5-2.4-2.9-4.5l2.5,1.6c-0.7-0.7-2.4-4.1-2.1-5.2
	l2.3,1.6c-1.1-1.4-2.4-5-1.5-6.4c0.7,2.7,2.3,3.7,2.3,3.7c-1-1.5-3.3-6.8-1.1-9.1c0.6,5.3,2.8,7.1,2.8,7.1c-1.9-3-4-12,0-13.9
	c-0.8,5.8,1.1,9,1.1,9c-1.2-5.4-1.1-13,2.9-13.7c-2,5.7-0.6,10.2-0.6,10.2c-0.3-13.4,4-13.2,4-13.2s-0.7,3.8-0.7,10.6V33
	C35.5,34.4,35.4,35.2,34.8,35.9"/>
</svg>
