<svg xmlns="http://www.w3.org/2000/svg" viewBox="0 0 160 60" id="Layer_1"><style id="style3662">.st0{fill:#FFFFFF;}</style><path id="path3664" d="M81.5 25c.9 0 1.7.7 1.7 1.6 0 .9-.8 1.6-1.7 1.6-.9 0-1.7-.7-1.7-1.6 0-.8.8-1.6 1.7-1.6m43.3 0c.9 0 1.7.7 1.7 1.6 0 .9-.8 1.6-1.7 1.6-.9 0-1.7-.7-1.7-1.6 0-.8.8-1.6 1.7-1.6M67.2 35.1h-.3c-.4 0-1.5.1-2.3.3-.6.2-1 .5-1 1 0 .7.7 1 1.4 1 1.4 0 2.2-.9 2.2-2v-.3zm2.7-1.7v6h-2.6v-1c-.7.7-1.5 1.2-2.8 1.2-2.1.1-3.7-1.2-3.7-3.1 0-2.9 3.1-3.5 6.1-3.5h.3c0-.8-.4-1.5-2-1.5-1.1 0-2 .3-2.7 1l-1.6-1.7c1.1-1.1 2.6-1.6 4.3-1.6 1.7 0 2.6.2 3.5 1.1 1 .8 1.2 2.3 1.2 3.1m5.7-3.9v-3.1h-2.8v3.1h-2v2.4h2v4.2c0 1.4.2 2.3.8 2.8.5.5 1.3.8 2.5.8.8 0 1.5-.2 2.1-.4v-2.2c-.4.1-.9.2-1.5.2-.9 0-1.1-.5-1.1-1.3v-4.1h2.6v-2.4h-2.6zm71.9 3.8c-.1-1.1-.7-1.9-2.1-1.8-1.2 0-2 .8-2.1 1.8h4.2zm3 1.3v.8h-7.3c0 1 1.2 1.9 2.6 1.9 1.3.1 2-.4 2.6-1.2l1.8 1.3c-1.1 1.4-2.4 2.2-4.4 2.2-3 0-5.5-1.9-5.5-5.2 0-2.7 1.7-5.2 5.2-5.2s5 2.8 5 5.4M55.9 25v9.8L49.7 25h-3.8v14.4H49V29.3l6.3 10.1H59V25zm63.5 4.5l-1.6 6.1-1.6-6.1h-3l-1.5 6.1-1.6-6.1H107l3.1 9.9h2.9l1.7-6.2 1.9 6.2h2.6l3.2-9.9zm-39.3 0H83v10h-2.9v-10zm43.3 0h2.9v10h-2.9v-10zm-18.2.6c-.6-.6-1.3-.9-2.5-.9-1.1 0-2.4.5-3 1.3v-1.1H97v10h2.9V34c0-.7.2-1.2.5-1.6.3-.3.7-.5 1.2-.6.6 0 1 .2 1.2.6.3.4.4 1.1.4 2v5h2.9v-6.2c.1-1.2-.1-2.2-.9-3.1m30.6 4.3c0-1.3-.9-2.7-2.5-2.7-1.7 0-2.5 1.4-2.5 2.7 0 1.3.9 2.7 2.5 2.7 1.7 0 2.5-1.3 2.5-2.7m2.8-9.4v14.4h-2.7v-1.1c-.6.7-1.7 1.3-3.1 1.3-1.4 0-2.6-.5-3.5-1.3-.9-.9-1.5-2.3-1.5-3.9 0-3 2-5.2 4.8-5.2 1.2 0 2.2.4 3 1.1v-5.4l3 .1zM90 31.7c-1.7 0-2.5 1.4-2.5 2.7 0 1.3.9 2.7 2.5 2.7 1.7 0 2.5-1.4 2.5-2.7 0-1.3-.8-2.7-2.5-2.7m5.4 2.7c0 3-2.3 5.2-5.4 5.2-3.1 0-5.4-2.2-5.4-5.2s2.3-5.2 5.4-5.2c3.1 0 5.4 2.2 5.4 5.2m55.3-7.2c0-1 .8-1.9 1.9-1.9 1.1 0 1.9.8 1.9 1.9 0 1-.8 1.9-1.9 1.9-1 0-1.9-.8-1.9-1.9m-.4 0c0 1.3 1 2.3 2.3 2.3 1.3 0 2.3-1 2.3-2.3 0-1.3-1-2.3-2.3-2.3-1.2 0-2.3 1.1-2.3 2.3m1.9-.9h.4c.3 0 .6 0 .6.4 0 .3-.3.4-.6.4h-.4v-.8zm-.5 2.2h.5v-1.1h.4l.6 1.1h.5l-.7-1.1c.4 0 .6-.3.6-.7 0-.5-.3-.8-.9-.8h-1v2.6z" class="st0" fill="#fff"/><g id="XMLID_1_" fill="#fff"><path d="M29.8 18.5v16.7l-2.1-2v6.4c0 1.5-.1 2.5-.8 3.3l-.1.1 2.4 2.2h8V18.6h-7.4z" class="st0" id="XMLID_82_"/><path d="M12.2 29.1s3.3 3.1 3.6 3.4c-.3-1.2-.5-2.7.1-3.7l.3-.5c-.3-1.8-.3-3.7.9-5l.3-.3-4.4-4.4H5v26.7h7.3V29.1h-.1z" class="st0" id="XMLID_81_"/><path d="M29 47.2c1.8.1 3 .3 4.2.4.5.1.7.6.7.9-.6-.1-1.6-.2-1.6-.2v.6s.8-.2 1.7-.2c0 0 1.8 0 1.7 1.2-.5-.3-1.5-.2-1.8-.2-.9.1-1.8.6-2.8 1.1-.9.5-1.9 1-3.1 1.4.5-.5 1.9-2 1.9-2l-1.8-.6 1.5-1.3-2.2-1.2c.5 0 1.1.1 1.6.1m-2.6-4.8c-.8 1-1.9 2.3-1.7 3.3.2.8 1.3 1.3 1.3 1.3l2.5 1.4-1.6 1.4 1.9.6-2 2c-.5.1-1.1.1-1.6.1-4 0-9.8-2.4-11.2-2.5-1.7 0-3.9 1-3.9 1l1.1-1.2s-1.5.3-2.9.2l2-1.4c-1.8-.1-3.3-.6-4-1.1 0 0 3.3-.3 7.6-.2 1.8 0 4.7.2 4.7.2-1.5-.6-2.9-1.5-3.5-2.9l2.9.4c-1.2-.7-2.9-2.6-3.3-4l3.2 1.1c-.6-.6-2.5-2.5-2.9-4.6l2.5 1.6c-.7-.7-2.4-4.2-2.1-5.2l2.3 1.6c-1.1-1.4-2.4-5.1-1.5-6.5.7 2.8 2.3 3.8 2.3 3.8-1-1.5-3.3-6.9-1.1-9.2.6 5.3 2.8 7.1 2.8 7.1-1.9-3-4-12.2 0-14-.8 5.9 1.1 9.1 1.1 9.1-1.2-5.4-1.2-13.1 2.9-13.8-2 5.8-.6 10.3-.6 10.3-.3-13.6 4-13.4 4-13.4s-.7 3.9-.7 10.7v19.9c.2 1.3 0 2.2-.5 2.9" class="st0" id="XMLID_78_"/></g></svg>