<svg id="Layer_2" xmlns="http://www.w3.org/2000/svg" viewBox="0 0 160 60"><style>.st0{fill:#FFFFFF;} .st1{fill:#1658A5;}</style><path class="st0" d="M29.6 46.1c1.7.1 3.1.2 4.3.4.5.1.7.6.7.9-.6-.1-1.5-.2-1.5-.2l-.1.7s.8-.2 1.7-.2c0 0 1.8 0 1.7 1.2-.5-.3-1.5-.2-1.8-.2-.9.1-1.8.6-2.9 1.1-.9.5-1.9 1-3.2 1.4.5-.5 1.8-2 1.8-2l-1.6-.6 1.4-1.3L28 46c.6.1 1.1.1 1.6.1M27 41.3c-.8.9-1.9 2.3-1.6 3.4.2.8 1.3 1.3 1.3 1.3l2.6 1.3-1.7 1.4 1.9.6-2 2c-.5.1-1 .1-1.6.1-4.2 0-10-2.5-11.4-2.5-1.7 0-3.9 1-3.9 1l1.1-1.2s-1.5.3-3 .2l2-1.4c-1.7-.1-3.4-.6-4.1-1.1 0 0 3.3-.3 7.8-.2 1.9 0 5 .2 5 .2-1.5-.6-3-1.5-3.6-3l2.9.4c-1.2-.7-3-2.6-3.3-4l3.2 1.1c-.6-.6-2.6-2.5-3-4.6l2.6 1.6c-.7-.7-2.5-4.2-2.1-5.3l2.3 1.6c-1.1-1.4-2.5-5.1-1.5-6.5.7 2.8 2.3 3.8 2.3 3.8-1-1.5-3.4-6.9-1.1-9.3.6 5.4 2.9 7.3 2.9 7.3-1.9-3.1-4.1-12.3 0-14.2-1 6.1 1 9.4 1 9.4-1.2-5.5-1.1-13.3 3-14-2 5.8-.6 10.4-.6 10.4-.4-13.7 4-13.5 4-13.5s-.7 3.9-.7 10.8v19.9c0 1.5-.1 2.3-.7 3"/><path class="st1" d="M29.8 44.2H38V17h-7.6v16.9l-2.1-2.1V18.3c0-7.9.9-11.6.9-11.6-2.6 0-3.9 2.5-4.2 3.2-1.4.2-2.6 1-3.4 2.6-.4.9-.6 1.7-.7 2.2-3 .7-3.3 6-3.1 7L13.2 17H5v27.1h7.5V27.7l3.7 3.5c.3 1 .6 1.4.6 1.4l-1.4-1.2c-.3 2.7.5 4 1.2 5L14.8 35c-.1 2.7 1.1 4.3 1.9 4.9l-2.2-1.1c-.2 1.5 1.4 3.9 2.3 4.3l-1.9-.3c.4 2.1 1.9 3 1.9 3s-3.3-.1-4.8-.1c-4.2 0-6.9.4-6.9.4s1.8 1.8 4.2 1.9l-2.1 1.3c1.5.5 3 .3 3 .3L8.9 51s3.9-1.5 5.5-1.3c1.3.1 7.4 2.5 11.4 2.5 2.8 0 4.7-1 6.3-1.8.9-.5 1.8-.9 2.7-1 1.4-.2 2.1.3 2.1.3.1-.6.6-2.1-1.7-2.6-.1-.4-.5-1-1.1-1.1-1.3-.2-6.7-.6-6.8-.6-.5 0-2-.3-.6-2.3.1-.2.8-1 .8-1l2.3 2.1zm-.2 1.9c1.7.1 3.1.2 4.3.4.5.1.7.6.7.9-.6-.1-1.5-.2-1.5-.2l-.1.7s.8-.2 1.7-.2c0 0 1.8 0 1.7 1.2-.5-.3-1.5-.2-1.8-.2-.9.1-1.8.6-2.9 1.1-.9.5-1.9 1-3.2 1.4.5-.5 1.8-2 1.8-2l-1.6-.6 1.4-1.3L28 46c.6.1 1.1.1 1.6.1M27 41.3c-.8.9-1.9 2.3-1.6 3.4.2.8 1.3 1.3 1.3 1.3l2.6 1.3-1.7 1.4 1.9.6-2 2c-.5.1-1 .1-1.6.1-4.2 0-10-2.5-11.4-2.5-1.7 0-3.9 1-3.9 1l1.1-1.2s-1.5.3-3 .2l2-1.4c-1.7-.1-3.4-.6-4.1-1.1 0 0 3.3-.3 7.8-.2 1.9 0 5 .2 5 .2-1.5-.6-3-1.5-3.6-3l2.9.4c-1.2-.7-3-2.6-3.3-4l3.2 1.1c-.6-.6-2.6-2.5-3-4.6l2.6 1.6c-.7-.7-2.5-4.2-2.1-5.3l2.3 1.6c-1.1-1.4-2.5-5.1-1.5-6.5.7 2.8 2.3 3.8 2.3 3.8-1-1.5-3.4-6.9-1.1-9.3.6 5.4 2.9 7.3 2.9 7.3-1.9-3.1-4.1-12.3 0-14.2-1 6.1 1 9.4 1 9.4-1.2-5.5-1.1-13.3 3-14-2 5.8-.6 10.4-.6 10.4-.4-13.7 4-13.5 4-13.5s-.7 3.9-.7 10.8v19.9c0 1.5-.1 2.3-.7 3"/><path d="M81.5 23.6c.9 0 1.7.7 1.7 1.6s-.8 1.6-1.7 1.6c-.9 0-1.7-.7-1.7-1.6 0-.8.8-1.6 1.7-1.6m43 0c.9 0 1.7.7 1.7 1.6s-.8 1.6-1.7 1.6c-.9 0-1.7-.7-1.7-1.6 0-.8.8-1.6 1.7-1.6M67.2 33.7h-.3c-.4 0-1.5.1-2.3.3-.6.2-1 .5-1 1 0 .7.7 1 1.4 1 1.4 0 2.2-.9 2.2-2v-.3zm2.7-1.7v6h-2.6v-1c-.7.7-1.5 1.2-2.8 1.2-2.1.1-3.7-1.2-3.7-3.1 0-2.9 3.1-3.5 6.1-3.5h.3c0-.8-.4-1.5-2-1.5-1.1 0-2 .3-2.7 1l-1.6-1.7c1.1-1.1 2.6-1.6 4.3-1.6 1.7 0 2.6.2 3.5 1.1 1 .8 1.2 2.3 1.2 3.1m5.7-3.9V25h-2.8v3.1h-2v2.4h2v4.2c0 1.4.2 2.3.8 2.8.5.5 1.3.8 2.5.8.8 0 1.5-.2 2.1-.4v-2.2c-.4.1-.9.2-1.5.2-.9 0-1.1-.5-1.1-1.3v-4.1h2.6v-2.4h-2.6zm71.5 3.8c-.1-1.1-.7-1.9-2.1-1.8-1.2 0-2 .8-2.1 1.8h4.2zm3 1.3v.8h-7.3c0 1 1.2 1.9 2.6 1.9 1.3.1 2-.4 2.6-1.2l1.8 1.3c-1.1 1.4-2.4 2.2-4.4 2.2-3 0-5.5-1.9-5.5-5.2 0-2.7 1.7-5.2 5.2-5.2s5 2.8 5 5.4m-94.2-9.6v9.7l-6.1-9.7H46v14.3h3.1v-10l6.2 10H59V23.6zm63.3 4.5l-1.5 6.1-1.6-6.1h-3l-1.5 6.1-1.6-6.1h-3.2l3.1 9.9h2.9l1.7-6.2 1.9 6.2h2.6l3.2-9.9zM80 28h3v10h-3zm43 0h3v10h-3zm-17.9.7c-.6-.6-1.3-.9-2.5-.9-1.1 0-2.4.5-3 1.3V28H97v10h2.9v-5.4c0-.7.2-1.2.5-1.6.3-.3.7-.5 1.2-.6.6 0 1 .2 1.2.6.3.4.4 1.1.4 2v5h2.9v-6.2c0-1.2-.2-2.2-1-3.1m30.1 4.3c0-1.3-.9-2.7-2.5-2.7-1.7 0-2.5 1.4-2.5 2.7 0 1.3.9 2.7 2.5 2.7 1.7 0 2.5-1.3 2.5-2.7m2.8-9.4V38h-2.7v-1.1c-.6.7-1.7 1.3-3.1 1.3-1.4 0-2.6-.5-3.5-1.3-.9-.9-1.5-2.3-1.5-3.9 0-3 2-5.2 4.8-5.2 1.2 0 2.2.4 3 1.1v-5.4l3 .1zm-48 6.7c-1.7 0-2.5 1.4-2.5 2.7 0 1.3.9 2.7 2.5 2.7 1.7 0 2.5-1.4 2.5-2.7 0-1.3-.8-2.7-2.5-2.7m5.4 2.7c0 3-2.3 5.2-5.4 5.2S84.6 36 84.6 33s2.3-5.2 5.4-5.2 5.4 2.2 5.4 5.2m55.3-7.2c0-1 .8-1.9 1.9-1.9 1.1 0 1.9.8 1.9 1.9 0 1-.8 1.9-1.9 1.9-1 0-1.9-.8-1.9-1.9m-.4 0c0 1.3 1 2.3 2.3 2.3s2.3-1 2.3-2.3-1-2.3-2.3-2.3c-1.2 0-2.3 1.1-2.3 2.3m1.9-.9h.4c.3 0 .6 0 .6.4 0 .3-.3.4-.6.4h-.4v-.8zm-.5 2.2h.5V26h.4l.6 1.1h.5L153 26c.4 0 .6-.3.6-.7 0-.5-.3-.8-.9-.8h-1v2.6z"/></svg>